<?xml version="1.0" encoding="UTF-8"?>
<svg version="1.1" xmlns="http://www.w3.org/2000/svg" width="500" height="500">
<path d="M0 0 C2.05588393 0.01070393 4.11089086 0.00006332 6.16674805 -0.01269531 C12.81047006 -0.01870764 19.12174986 0.23084714 25.59472656 1.83203125 C27.93206571 2.39843024 27.93206571 2.39843024 31.62573242 2.26074219 C33.29696407 2.98166564 34.9669599 3.70613144 36.62182617 4.46386719 C39.54492245 5.62626805 42.53211106 6.21760786 45.61010742 6.83105469 C49.08768392 7.57239851 52.3854775 8.81115446 55.62573242 10.26074219 C55.95573242 10.92074219 56.28573242 11.58074219 56.62573242 12.26074219 C57.36823242 12.40511719 58.11073242 12.54949219 58.87573242 12.69824219 C62.01431166 13.3402243 63.90984187 14.57947661 66.62573242 16.26074219 C68.93588379 17.32659491 71.27227955 18.29167336 73.62573242 19.26074219 C73.62573242 19.92074219 73.62573242 20.58074219 73.62573242 21.26074219 C74.53323242 21.50824219 75.44073242 21.75574219 76.37573242 22.01074219 C79.78144701 23.32063241 81.21492678 24.60054286 83.62573242 27.26074219 C84.61573242 27.92074219 85.60573242 28.58074219 86.62573242 29.26074219 C86.62573242 29.92074219 86.62573242 30.58074219 86.62573242 31.26074219 C87.18518555 31.34066406 87.74463867 31.42058594 88.32104492 31.50292969 C96.692255 34.25549707 103.41428388 44.19920433 108.75073242 50.94824219 C110.589855 53.3207057 110.589855 53.3207057 112.87573242 55.38574219 C114.62573242 57.26074219 114.62573242 57.26074219 114.62573242 60.26074219 C115.28573242 60.26074219 115.94573242 60.26074219 116.62573242 60.26074219 C117.01245117 60.98519531 117.39916992 61.70964844 117.79760742 62.45605469 C120.01681097 66.57586325 122.19857023 70.62610122 124.81323242 74.51074219 C128.44751372 80.02482415 130.62573242 85.64703326 130.62573242 92.26074219 C131.28573242 92.26074219 131.94573242 92.26074219 132.62573242 92.26074219 C134.16150727 96.04898682 135.52492504 99.49748627 136.06323242 103.57324219 C136.50337229 107.18347746 136.50337229 107.18347746 137.62573242 110.19824219 C138.84045607 113.91833334 139.18653431 117.37070173 139.62573242 121.26074219 C139.9505666 122.59617157 140.28081793 123.9303577 140.62573242 125.26074219 C140.62573242 135.59407552 140.62573242 145.92740885 140.62573242 156.26074219 C139.96573242 156.26074219 139.30573242 156.26074219 138.62573242 156.26074219 C138.81135742 157.18886719 138.99698242 158.11699219 139.18823242 159.07324219 C139.62573242 162.26074219 139.62573242 162.26074219 138.62573242 165.26074219 C138.11560829 168.19395594 137.64584963 171.13141725 137.18823242 174.07324219 C137.00260742 174.79511719 136.81698242 175.51699219 136.62573242 176.26074219 C135.96573242 176.59074219 135.30573242 176.92074219 134.62573242 177.26074219 C134.39608176 179.26198371 134.16958771 181.2637572 133.97338867 183.26855469 C133.52001662 185.86652939 132.28678267 187.25363981 130.62573242 189.26074219 C130.25263343 190.91895992 129.91872265 192.58651233 129.62573242 194.26074219 C128.68823242 196.32324219 128.68823242 196.32324219 127.62573242 198.26074219 C127.31635742 198.90011719 127.00698242 199.53949219 126.68823242 200.19824219 C125.62573242 202.26074219 125.62573242 202.26074219 124.12573242 204.69824219 C122.56435706 207.21620083 122.56435706 207.21620083 121.56323242 209.94824219 C120.62573242 212.26074219 120.62573242 212.26074219 118.62573242 214.26074219 C118.29573242 214.92074219 117.96573242 215.58074219 117.62573242 216.26074219 C116.62573242 218.26074219 116.62573242 218.26074219 114.62573242 220.26074219 C110.59077524 225.16033305 106.64976082 230.22205726 103.12963867 235.50683594 C102.63334961 236.085625 102.13706055 236.66441406 101.62573242 237.26074219 C100.63573242 237.26074219 99.64573242 237.26074219 98.62573242 237.26074219 C98.25448242 238.15599609 98.25448242 238.15599609 97.87573242 239.06933594 C96.43254154 241.59942996 95.01059474 242.67926541 92.62573242 244.32324219 C89.84652982 246.24927046 88.55103676 247.37278567 86.62573242 250.26074219 C82.3508096 253.11069074 77.93497422 255.67697605 73.46557617 258.20996094 C72.2019515 258.93164891 70.94439685 259.66403779 69.69213867 260.40527344 C64.8388508 263.26074219 64.8388508 263.26074219 62.62573242 263.26074219 C62.23385742 263.73511719 61.84198242 264.20949219 61.43823242 264.69824219 C58.69576449 267.06243868 56.16669732 267.07104764 52.62573242 267.26074219 C49.41085685 265.1174918 48.26649735 263.70634853 46.62573242 260.26074219 C46.75073242 258.26074219 46.75073242 258.26074219 47.62573242 256.26074219 C47.97635742 255.41511719 48.32698242 254.56949219 48.68823242 253.69824219 C51.3850073 250.30552541 54.50296774 249.33738774 58.62573242 248.26074219 C59.28573242 248.26074219 59.94573242 248.26074219 60.62573242 248.26074219 C60.95573242 247.27074219 61.28573242 246.28074219 61.62573242 245.26074219 C63.27573242 245.26074219 64.92573242 245.26074219 66.62573242 245.26074219 C66.83198242 244.68324219 67.03823242 244.10574219 67.25073242 243.51074219 C69.615849 239.64055142 73.27106974 237.77250364 77.43823242 236.19824219 C78.16010742 235.88886719 78.88198242 235.57949219 79.62573242 235.26074219 C79.95573242 234.27074219 80.28573242 233.28074219 80.62573242 232.26074219 C82.00073242 230.57324219 82.00073242 230.57324219 83.62573242 229.26074219 C84.61573242 229.26074219 85.60573242 229.26074219 86.62573242 229.26074219 C86.95573242 228.27074219 87.28573242 227.28074219 87.62573242 226.26074219 C88.28573242 226.26074219 88.94573242 226.26074219 89.62573242 226.26074219 C90.01438477 225.39255859 90.01438477 225.39255859 90.41088867 224.50683594 C91.7167242 222.0925098 93.20672658 220.33944746 95.06323242 218.32324219 C97.6563632 215.44497462 99.64618614 212.59471487 101.62573242 209.26074219 C102.28573242 209.26074219 102.94573242 209.26074219 103.62573242 209.26074219 C103.72885742 208.70386719 103.83198242 208.14699219 103.93823242 207.57324219 C104.76751651 204.78383208 105.96872298 202.64683579 107.62573242 200.26074219 C108.28573242 200.26074219 108.94573242 200.26074219 109.62573242 200.26074219 C109.29573242 199.27074219 108.96573242 198.28074219 108.62573242 197.26074219 C109.94573242 196.60074219 111.26573242 195.94074219 112.62573242 195.26074219 C112.56385742 194.33261719 112.50198242 193.40449219 112.43823242 192.44824219 C112.65602538 188.74576193 113.12127409 188.66502219 115.62573242 186.26074219 C116.00706541 184.26933659 116.33898825 182.26795142 116.62573242 180.26074219 C117.29239909 178.92740885 117.95906576 177.59407552 118.62573242 176.26074219 C118.62573242 174.94074219 118.62573242 173.62074219 118.62573242 172.26074219 C119.28573242 171.93074219 119.94573242 171.60074219 120.62573242 171.26074219 C121.061796 169.27818095 121.061796 169.27818095 121.18823242 166.88574219 C121.26041992 165.99371094 121.33260742 165.10167969 121.40698242 164.18261719 C121.47916992 163.21839844 121.55135742 162.25417969 121.62573242 161.26074219 C121.8104289 159.21882 121.99784286 157.17714142 122.18823242 155.13574219 C122.33452373 153.51078335 122.48052777 151.88579849 122.62573242 150.26074219 C123.28573242 150.26074219 123.94573242 150.26074219 124.62573242 150.26074219 C124.62573242 143.66074219 124.62573242 137.06074219 124.62573242 130.26074219 C123.96573242 130.26074219 123.30573242 130.26074219 122.62573242 130.26074219 C122.66053711 129.29974609 122.66053711 129.29974609 122.69604492 128.31933594 C122.80994963 122.8600458 122.27344061 118.51281204 120.62573242 113.26074219 C120.62573242 111.59407552 120.62573242 109.92740885 120.62573242 108.26074219 C119.96573242 107.60074219 119.30573242 106.94074219 118.62573242 106.26074219 C118.06165051 104.50926787 117.57030875 102.73379605 117.12573242 100.94824219 C116.19495991 97.24032779 115.05795498 93.80234693 113.62573242 90.26074219 C113.40916992 88.96136719 113.40916992 88.96136719 113.18823242 87.63574219 C112.53614006 84.88246332 111.66628808 84.13805339 109.62573242 82.26074219 C108.62573242 80.44824219 108.62573242 80.44824219 107.62573242 78.26074219 C107.13073242 77.29136719 106.63573242 76.32199219 106.12573242 75.32324219 C104.62573242 72.26074219 104.62573242 72.26074219 103.62573242 69.44824219 C103.29573242 68.72636719 102.96573242 68.00449219 102.62573242 67.26074219 C101.63573242 66.93074219 100.64573242 66.60074219 99.62573242 66.26074219 C98.95132111 64.59719429 98.28570033 62.93007277 97.62573242 61.26074219 C95.81350708 59.19824279 95.81350708 59.19824279 93.62573242 57.26074219 C91.95906576 55.59407552 90.29239909 53.92740885 88.62573242 52.26074219 C87.86260742 51.53886719 87.09948242 50.81699219 86.31323242 50.07324219 C84.62573242 48.26074219 84.62573242 48.26074219 84.62573242 46.26074219 C84.00698242 46.13699219 83.38823242 46.01324219 82.75073242 45.88574219 C80.62573242 45.26074219 80.62573242 45.26074219 78.62573242 43.26074219 C76.22387772 41.32376259 74.59050863 40.24900092 71.62573242 39.26074219 C70.96573242 38.60074219 70.30573242 37.94074219 69.62573242 37.26074219 C64.84219438 33.74005819 60.3939937 30.87048952 54.62573242 29.26074219 C54.01084961 28.94492188 53.3959668 28.62910156 52.76245117 28.30371094 C50.45646063 27.17811775 48.22270652 26.50476776 45.75073242 25.82324219 C42.76947893 24.96959838 40.46720553 24.17114003 37.75073242 22.63574219 C33.68237167 20.84566346 29.93582453 20.70993636 25.52807617 20.47167969 C22.8137811 20.27440925 20.27816531 19.85449781 17.62573242 19.26074219 C17.62573242 18.93074219 17.62573242 18.60074219 17.62573242 18.26074219 C13.14168679 18.23598319 8.65767761 18.2178542 4.17358398 18.20581055 C2.64883735 18.20078854 1.12409551 18.19396969 -0.40063477 18.18530273 C-2.59498277 18.1731437 -4.78926698 18.1674925 -6.98364258 18.16308594 C-8.30332031 18.15784912 -9.62299805 18.1526123 -10.98266602 18.1472168 C-15.55655604 18.13918688 -15.55655604 18.13918688 -19.37426758 20.26074219 C-21.03789846 20.42116374 -22.70575636 20.53841237 -24.37426758 20.63574219 C-31.06358956 21.19101664 -36.63710403 22.89216041 -42.62426758 25.88574219 C-45.37426758 27.26074219 -45.37426758 27.26074219 -47.74926758 27.69824219 C-50.97696238 28.38989107 -53.53710792 29.75995521 -56.44848633 31.28417969 C-58.37426758 32.26074219 -58.37426758 32.26074219 -61.18676758 33.32324219 C-63.39751294 34.10875197 -63.39751294 34.10875197 -64.76489258 35.66308594 C-66.4939075 37.37951094 -68.22478894 38.51095844 -70.31176758 39.76074219 C-75.30402744 42.82168984 -79.26646069 46.05957605 -83.37426758 50.26074219 C-84.76875683 51.65791831 -86.16467162 53.05367262 -87.56176758 54.44824219 C-88.23594727 55.12242188 -88.91012695 55.79660156 -89.60473633 56.49121094 C-90.86124674 57.74772135 -92.11775716 59.00423177 -93.37426758 60.26074219 C-94.7234629 61.91459452 -96.05560486 63.58244418 -97.37426758 65.26074219 C-97.91051758 65.94136719 -98.44676758 66.62199219 -98.99926758 67.32324219 C-100.36369498 69.24584443 -101.37499398 71.12895851 -102.37426758 73.26074219 C-103.04093424 74.59407552 -103.70760091 75.92740885 -104.37426758 77.26074219 C-104.68364258 77.94136719 -104.99301758 78.62199219 -105.31176758 79.32324219 C-106.37426758 81.26074219 -106.37426758 81.26074219 -107.93676758 82.69824219 C-109.83838211 84.7652145 -109.85334392 86.52589299 -110.37426758 89.26074219 C-111.37426758 90.92740885 -112.37426758 92.59407552 -113.37426758 94.26074219 C-113.75262196 95.9177687 -114.08127735 97.58651233 -114.37426758 99.26074219 C-114.68425079 100.92787879 -114.99675293 102.59454898 -115.31176758 104.26074219 C-115.46516602 105.08574219 -115.61856445 105.91074219 -115.77661133 106.76074219 C-116.37426758 109.26074219 -116.37426758 109.26074219 -117.40161133 111.64746094 C-118.58750146 114.83364769 -118.79394326 117.68539086 -118.99926758 121.07324219 C-119.0740332 122.2346875 -119.14879883 123.39613281 -119.22583008 124.59277344 C-119.27481445 125.47320312 -119.32379883 126.35363281 -119.37426758 127.26074219 C-120.03426758 127.26074219 -120.69426758 127.26074219 -121.37426758 127.26074219 C-121.37426758 136.50074219 -121.37426758 145.74074219 -121.37426758 155.26074219 C-120.71426758 155.26074219 -120.05426758 155.26074219 -119.37426758 155.26074219 C-119.41551758 156.29199219 -119.45676758 157.32324219 -119.49926758 158.38574219 C-119.37592166 162.20946579 -118.70551775 164.71074172 -117.37426758 168.26074219 C-117.04426758 169.43636719 -116.71426758 170.61199219 -116.37426758 171.82324219 C-115.52588781 174.73954765 -114.51294272 177.45201018 -113.37426758 180.26074219 C-112.21637284 183.94495271 -112.21637284 183.94495271 -113.37426758 186.26074219 C-112.71426758 186.26074219 -112.05426758 186.26074219 -111.37426758 186.26074219 C-111.10743164 186.96972656 -110.8405957 187.67871094 -110.56567383 188.40917969 C-106.84139252 197.32303331 -101.38531307 204.83733419 -95.09692383 212.08105469 C-93.37426758 214.26074219 -93.37426758 214.26074219 -93.37426758 216.26074219 C-91.65357336 217.77658586 -91.65357336 217.77658586 -89.49926758 219.26074219 C-87.27624501 220.85430676 -85.31192033 222.32308943 -83.37426758 224.26074219 C-83.37426758 225.25074219 -83.37426758 226.24074219 -83.37426758 227.26074219 C-82.38426758 226.93074219 -81.39426758 226.60074219 -80.37426758 226.26074219 C-79.65239258 227.00324219 -78.93051758 227.74574219 -78.18676758 228.51074219 C-74.54469794 232.07187694 -71.05682716 235.1796046 -66.37426758 237.26074219 C-66.37426758 237.92074219 -66.37426758 238.58074219 -66.37426758 239.26074219 C-65.05426758 239.26074219 -63.73426758 239.26074219 -62.37426758 239.26074219 C-62.37426758 240.25074219 -62.37426758 241.24074219 -62.37426758 242.26074219 C-60.45960391 242.13896531 -60.45960391 242.13896531 -58.37426758 241.26074219 C-56.71126793 238.85018965 -56.71126793 238.85018965 -55.37426758 236.26074219 C-54.71426758 235.60074219 -54.05426758 234.94074219 -53.37426758 234.26074219 C-53.04426758 233.60074219 -52.71426758 232.94074219 -52.37426758 232.26074219 C-51.71426758 232.26074219 -51.05426758 232.26074219 -50.37426758 232.26074219 C-50.37426758 231.27074219 -50.37426758 230.28074219 -50.37426758 229.26074219 C-49.71426758 228.60074219 -49.05426758 227.94074219 -48.37426758 227.26074219 C-50.40223888 225.23277089 -52.41836512 223.83276351 -54.81176758 222.26074219 C-55.59422852 221.74511719 -56.37668945 221.22949219 -57.18286133 220.69824219 C-57.90602539 220.22386719 -58.62918945 219.74949219 -59.37426758 219.26074219 C-60.85926758 218.27074219 -60.85926758 218.27074219 -62.37426758 217.26074219 C-62.37426758 216.60074219 -62.37426758 215.94074219 -62.37426758 215.26074219 C-62.93114258 215.02742187 -63.48801758 214.79410156 -64.06176758 214.55371094 C-71.26092251 210.52850776 -76.68492489 203.49185385 -80.37426758 196.26074219 C-80.88989258 195.74511719 -81.40551758 195.22949219 -81.93676758 194.69824219 C-84.08420381 192.55080595 -85.09225065 189.99199563 -86.37426758 187.26074219 C-86.72489258 186.55949219 -87.07551758 185.85824219 -87.43676758 185.13574219 C-87.74614258 184.51699219 -88.05551758 183.89824219 -88.37426758 183.26074219 C-88.86926758 182.30167969 -88.86926758 182.30167969 -89.37426758 181.32324219 C-90.49662556 179.00837885 -91.43908819 176.65713938 -92.37426758 174.26074219 C-92.86926758 173.11605469 -92.86926758 173.11605469 -93.37426758 171.94824219 C-94.72441362 168.3197247 -95.21945438 164.69485215 -95.81176758 160.88183594 C-96.22169519 158.31661362 -96.22169519 158.31661362 -97.390625 156.50244141 C-99.59104379 151.48773668 -98.69993402 145.33331533 -98.68676758 139.94824219 C-98.70288086 138.64177734 -98.71899414 137.3353125 -98.7355957 135.98925781 C-98.73903193 129.23020043 -98.52736295 124.24917913 -95.37426758 118.26074219 C-94.92823431 115.84837227 -94.92823431 115.84837227 -94.87426758 113.63574219 C-94.55906613 109.76139102 -93.55029619 107.5247851 -91.37426758 104.26074219 C-91.02411709 102.59752737 -90.69229701 100.93039669 -90.37426758 99.26074219 C-89.45625171 96.88382543 -88.42251486 94.5851166 -87.37426758 92.26074219 C-86.71426758 92.26074219 -86.05426758 92.26074219 -85.37426758 92.26074219 C-85.37426758 90.94074219 -85.37426758 89.62074219 -85.37426758 88.26074219 C-84.71426758 87.60074219 -84.05426758 86.94074219 -83.37426758 86.26074219 C-83.22989258 85.60074219 -83.08551758 84.94074219 -82.93676758 84.26074219 C-82.37426758 82.26074219 -82.37426758 82.26074219 -79.37426758 80.26074219 C-78.40864071 78.89832037 -77.49673132 77.49712262 -76.62426758 76.07324219 C-69.62244897 65.40945549 -55.1832154 52.06269952 -42.37426758 49.26074219 C-40.69886094 48.61635502 -39.03243542 47.94827519 -37.37426758 47.26074219 C-32.11071982 45.10133798 -26.96087122 43.35081119 -21.37426758 42.26074219 C-20.31006592 41.92518311 -19.24586426 41.58962402 -18.14941406 41.24389648 C-14.38705474 40.26407232 -11.28472968 40.01665526 -7.40942383 40.03027344 C-5.46712891 40.03317383 -5.46712891 40.03317383 -3.4855957 40.03613281 C-2.81987549 40.04233643 -2.15415527 40.04854004 -1.46826172 40.05493164 C0.55473515 40.0731656 2.57727129 40.07544092 4.6003418 40.07519531 C17.89508156 40.1346944 17.89508156 40.1346944 23.62573242 41.26074219 C23.95573242 41.92074219 24.28573242 42.58074219 24.62573242 43.26074219 C25.49198242 43.21949219 26.35823242 43.17824219 27.25073242 43.13574219 C30.74931711 43.2653194 33.37124839 44.02093875 36.62573242 45.26074219 C36.62573242 45.92074219 36.62573242 46.58074219 36.62573242 47.26074219 C37.67760742 47.36386719 38.72948242 47.46699219 39.81323242 47.57324219 C43.59558747 48.25530621 45.45200038 49.22629857 48.62573242 51.26074219 C49.59510742 51.57011719 50.56448242 51.87949219 51.56323242 52.19824219 C55.91770225 53.70897662 59.3724232 56.00743297 62.62573242 59.26074219 C63.61573242 60.08574219 64.60573242 60.91074219 65.62573242 61.76074219 C68.46335144 64.1254247 71.01911407 66.65412383 73.62573242 69.26074219 C74.36823242 69.96199219 75.11073242 70.66324219 75.87573242 71.38574219 C81.65259547 77.42518992 86.18427468 83.65075816 89.62573242 91.26074219 C90.14135742 92.29199219 90.65698242 93.32324219 91.18823242 94.38574219 C91.66260742 95.33449219 92.13698242 96.28324219 92.62573242 97.26074219 C93.43010742 98.74574219 93.43010742 98.74574219 94.25073242 100.26074219 C95.65699749 103.32895689 96.12101384 105.94402007 96.62573242 109.26074219 C96.96217773 109.87175781 97.29862305 110.48277344 97.64526367 111.11230469 C98.84147773 113.73349088 98.82616763 115.64420444 98.75073242 118.51074219 C98.73268555 119.40277344 98.71463867 120.29480469 98.69604492 121.21386719 C98.6728418 121.88933594 98.64963867 122.56480469 98.62573242 123.26074219 C99.28573242 123.26074219 99.94573242 123.26074219 100.62573242 123.26074219 C101.45253352 129.73735076 101.78006194 136.04742533 101.75073242 142.57324219 C101.75459961 143.45302734 101.7584668 144.3328125 101.76245117 145.23925781 C101.76051758 146.5125293 101.76051758 146.5125293 101.75854492 147.81152344 C101.75741699 148.57118408 101.75628906 149.33084473 101.75512695 150.11352539 C101.62475699 152.27692876 101.21965025 154.1808502 100.62573242 156.26074219 C99.96573242 156.26074219 99.30573242 156.26074219 98.62573242 156.26074219 C98.66053711 156.84082031 98.6953418 157.42089844 98.73120117 158.01855469 C98.9167373 163.37259722 98.271605 166.49817155 95.62573242 171.26074219 C95.27336745 173.25747703 94.93738683 175.25724958 94.62573242 177.26074219 C93.96573242 178.25074219 93.30573242 179.24074219 92.62573242 180.26074219 C91.92914879 181.91512832 91.26476359 183.58328537 90.62573242 185.26074219 C89.95906576 186.92740885 89.29239909 188.59407552 88.62573242 190.26074219 C87.96573242 190.26074219 87.30573242 190.26074219 86.62573242 190.26074219 C86.29573242 191.91074219 85.96573242 193.56074219 85.62573242 195.26074219 C84.63573242 195.59074219 83.64573242 195.92074219 82.62573242 196.26074219 C82.27160898 197.58870509 81.94051688 198.92290825 81.62573242 200.26074219 C80.65048456 201.28489628 79.64573808 202.28115633 78.62573242 203.26074219 C77.51476254 204.54656205 76.41098879 205.83862317 75.31323242 207.13574219 C72.30723723 210.58754175 69.29896898 213.5271708 65.62573242 216.26074219 C64.96573242 216.26074219 64.30573242 216.26074219 63.62573242 216.26074219 C63.62573242 216.92074219 63.62573242 217.58074219 63.62573242 218.26074219 C60.04337567 221.48176613 56.10550318 223.56569379 51.62573242 225.26074219 C50.28782601 226.25461552 48.95355121 227.25343139 47.62573242 228.26074219 C46.96573242 228.26074219 46.30573242 228.26074219 45.62573242 228.26074219 C45.29573242 228.92074219 44.96573242 229.58074219 44.62573242 230.26074219 C39.4035102 232.26074219 39.4035102 232.26074219 36.62573242 232.26074219 C36.29573242 232.92074219 35.96573242 233.58074219 35.62573242 234.26074219 C33.3028443 234.65384633 31.00728066 234.76823913 28.65698242 234.91699219 C27.98666992 235.03042969 27.31635742 235.14386719 26.62573242 235.26074219 C26.29573242 235.92074219 25.96573242 236.58074219 25.62573242 237.26074219 C23.48120117 237.63964844 23.48120117 237.63964844 20.81323242 237.82324219 C17.24769012 238.06430353 17.24769012 238.06430353 13.75854492 238.76782227 C11.42545155 239.30702963 9.3510765 239.39018687 6.95776367 239.39355469 C6.06379883 239.39484375 5.16983398 239.39613281 4.2487793 239.39746094 C3.32129883 239.39359375 2.39381836 239.38972656 1.43823242 239.38574219 C0.07601562 239.39154297 0.07601562 239.39154297 -1.3137207 239.39746094 C-8.44647844 239.3872494 -15.45526499 239.10542241 -22.37426758 237.26074219 C-22.37426758 236.60074219 -22.37426758 235.94074219 -22.37426758 235.26074219 C-23.36426758 234.93074219 -24.35426758 234.60074219 -25.37426758 234.26074219 C-24.41520508 232.86855469 -24.41520508 232.86855469 -23.43676758 231.44824219 C-21.28804665 228.41854276 -21.28804665 228.41854276 -20.37426758 225.26074219 C-19.71426758 225.26074219 -19.05426758 225.26074219 -18.37426758 225.26074219 C-18.27114258 224.53886719 -18.16801758 223.81699219 -18.06176758 223.07324219 C-17.30234002 219.96649307 -16.11175627 217.93380171 -14.37426758 215.26074219 C-13.85864258 214.37386719 -13.34301758 213.48699219 -12.81176758 212.57324219 C-11.37426758 210.26074219 -11.37426758 210.26074219 -9.37426758 208.26074219 C-9.04426758 207.60074219 -8.71426758 206.94074219 -8.37426758 206.26074219 C-7.37426758 204.26074219 -7.37426758 204.26074219 -5.37426758 202.26074219 C-4.67894644 200.94212521 -4.01527005 199.60660178 -3.37426758 198.26074219 C-0.56478635 193.01637723 2.40878429 187.90437929 5.61010742 182.88964844 C6.67983254 181.23065477 6.67983254 181.23065477 7.62573242 179.26074219 C8.61573242 179.26074219 9.60573242 179.26074219 10.62573242 179.26074219 C10.95573242 177.28074219 11.28573242 175.30074219 11.62573242 173.26074219 C10.18375374 174.70272087 9.50786998 176.4376579 8.62573242 178.26074219 C7.96573242 178.26074219 7.30573242 178.26074219 6.62573242 178.26074219 C6.62573242 178.92074219 6.62573242 179.58074219 6.62573242 180.26074219 C5.96573242 180.92074219 5.30573242 181.58074219 4.62573242 182.26074219 C4.13073242 183.12699219 3.63573242 183.99324219 3.12573242 184.88574219 C2.38323242 186.06136719 2.38323242 186.06136719 1.62573242 187.26074219 C0.96573242 187.26074219 0.30573242 187.26074219 -0.37426758 187.26074219 C-0.41551758 187.98261719 -0.45676758 188.70449219 -0.49926758 189.44824219 C-1.71685217 193.36190695 -4.24472174 194.70601089 -7.37426758 197.26074219 C-8.65681401 199.79844222 -8.65681401 199.79844222 -9.37426758 202.26074219 C-10.03426758 203.25074219 -10.69426758 204.24074219 -11.37426758 205.26074219 C-12.03426758 205.26074219 -12.69426758 205.26074219 -13.37426758 205.26074219 C-13.45676758 205.81761719 -13.53926758 206.37449219 -13.62426758 206.94824219 C-14.6242494 210.03151948 -16.27285036 211.7722218 -18.37426758 214.26074219 C-26.14319954 224.06324528 -26.14319954 224.06324528 -33.37426758 234.26074219 C-34.03426758 234.26074219 -34.69426758 234.26074219 -35.37426758 234.26074219 C-35.60114258 235.12699219 -35.82801758 235.99324219 -36.06176758 236.88574219 C-37.57769919 240.78385205 -39.59716368 243.15303068 -42.37426758 246.26074219 C-44.57566826 248.92910666 -46.53309293 251.51387008 -48.37426758 254.44824219 C-50.39357028 257.28788661 -51.36111829 257.85460585 -54.37426758 259.26074219 C-55.64231324 261.29433699 -55.64231324 261.29433699 -56.37426758 263.26074219 C-61.71277355 263.76917133 -64.10653212 262.36454979 -68.37426758 259.26074219 C-69.03426758 259.26074219 -69.69426758 259.26074219 -70.37426758 259.26074219 C-71.03426758 258.60074219 -71.69426758 257.94074219 -72.37426758 257.26074219 C-73.69174082 256.56325636 -75.02340951 255.89114262 -76.37426758 255.26074219 C-76.37426758 254.60074219 -76.37426758 253.94074219 -76.37426758 253.26074219 C-77.36426758 253.26074219 -78.35426758 253.26074219 -79.37426758 253.26074219 C-79.37426758 252.27074219 -79.37426758 251.28074219 -79.37426758 250.26074219 C-80.26114258 250.21949219 -81.14801758 250.17824219 -82.06176758 250.13574219 C-86.58593864 248.94067813 -87.57157379 246.91981463 -90.37426758 243.26074219 C-91.03426758 243.26074219 -91.69426758 243.26074219 -92.37426758 243.26074219 C-92.37426758 242.60074219 -92.37426758 241.94074219 -92.37426758 241.26074219 C-92.9440332 241.01582031 -93.51379883 240.77089844 -94.10083008 240.51855469 C-101.33828593 236.51432654 -106.67664876 228.90858457 -111.37426758 222.26074219 C-111.9234082 221.5865625 -112.47254883 220.91238281 -113.03833008 220.21777344 C-114.37426758 218.26074219 -114.37426758 218.26074219 -114.37426758 215.26074219 C-115.03426758 214.93074219 -115.69426758 214.60074219 -116.37426758 214.26074219 C-117.59301758 212.77246094 -117.59301758 212.77246094 -118.87426758 210.94824219 C-119.29708008 210.35398437 -119.71989258 209.75972656 -120.15551758 209.14746094 C-124.04874145 203.1204509 -127.00930617 196.28054372 -128.37426758 189.26074219 C-128.88989258 188.45636719 -129.40551758 187.65199219 -129.93676758 186.82324219 C-131.66270834 183.74656518 -131.45137805 181.73071363 -131.37426758 178.26074219 C-132.03426758 177.60074219 -132.69426758 176.94074219 -133.37426758 176.26074219 C-133.80933268 174.15081864 -134.15125997 172.02105117 -134.43676758 169.88574219 C-135.16434274 164.52484552 -135.16434274 164.52484552 -136.37426758 159.26074219 C-137.06571837 156.72542263 -137.37426758 154.93133349 -137.37426758 152.26074219 C-137.38595849 150.1070962 -137.39768207 147.9534504 -137.40942383 145.79980469 C-137.41635413 143.8395194 -137.42325751 141.87923385 -137.42919922 139.91894531 C-137.43423149 138.56704937 -137.44105789 137.21515889 -137.44970703 135.86328125 C-137.46189473 133.90464631 -137.46698767 131.94597132 -137.47192383 129.98730469 C-137.47977905 128.23281006 -137.47977905 128.23281006 -137.48779297 126.44287109 C-137.38582652 123.58474043 -137.03349932 121.03648907 -136.37426758 118.26074219 C-135.71426758 118.26074219 -135.05426758 118.26074219 -134.37426758 118.26074219 C-134.55989258 117.70386719 -134.74551758 117.14699219 -134.93676758 116.57324219 C-135.46079692 113.80337283 -135.02550579 111.99594266 -134.37426758 109.26074219 C-134.03481962 107.2617709 -133.70005142 105.2619858 -133.37426758 103.26074219 C-132.38426758 103.26074219 -131.39426758 103.26074219 -130.37426758 103.26074219 C-130.74551758 102.27074219 -130.74551758 102.27074219 -131.12426758 101.26074219 C-131.44609029 97.39886965 -130.18032338 95.50390226 -128.35864258 92.17871094 C-127.19074975 89.90317373 -126.78203711 87.77532098 -126.37426758 85.26074219 C-124.11945675 78.97948344 -120.8232771 73.20758153 -117.55786133 67.40917969 C-116.77524654 65.98859179 -116.02807279 64.54783736 -115.31958008 63.08886719 C-114.27360282 61.06606819 -113.01025286 59.82559768 -111.37426758 58.26074219 C-111.04426758 57.60074219 -110.71426758 56.94074219 -110.37426758 56.26074219 C-109.71426758 56.26074219 -109.05426758 56.26074219 -108.37426758 56.26074219 C-108.29176758 55.51824219 -108.20926758 54.77574219 -108.12426758 54.01074219 C-107.21224278 50.66665125 -105.90841604 49.57767793 -103.37426758 47.26074219 C-102.50801758 46.14699219 -102.50801758 46.14699219 -101.62426758 45.01074219 C-97.72900121 40.24986107 -93.50445983 35.68087036 -88.37426758 32.26074219 C-86.11587515 30.50421474 -83.89379793 28.73327346 -81.77661133 26.80761719 C-77.61038156 23.04946915 -73.46815735 20.5713726 -68.37426758 18.26074219 C-65.79735341 17.0359731 -63.77694573 15.82863702 -61.43676758 14.13574219 C-58.30135661 12.21610282 -56.94867142 11.84022409 -53.37426758 12.26074219 C-53.37426758 11.60074219 -53.37426758 10.94074219 -53.37426758 10.26074219 C-52.28114258 9.95136719 -51.18801758 9.64199219 -50.06176758 9.32324219 C-45.65924456 8.09313559 -45.65924456 8.09313559 -41.49926758 6.26074219 C-39.10305656 5.13311347 -36.98155075 4.73479367 -34.37426758 4.26074219 C-32.35867153 3.74175638 -30.34784209 3.20802874 -28.33911133 2.66308594 C-26.37426758 2.26074219 -26.37426758 2.26074219 -22.37426758 2.26074219 C-21.12516602 1.93589844 -19.87606445 1.61105469 -18.58911133 1.27636719 C-12.44888406 -0.14534222 -6.26701556 -0.03877273 0 0 Z M-118.37426758 107.26074219 C-117.37426758 109.26074219 -117.37426758 109.26074219 -117.37426758 109.26074219 Z M-118.37426758 170.26074219 C-117.37426758 172.26074219 -117.37426758 172.26074219 -117.37426758 172.26074219 Z " fill="#FCFCFA" transform="translate(235.374267578125,54.7392578125)"/>
<path d="M0 0 C2.05588393 0.01070393 4.11089086 0.00006332 6.16674805 -0.01269531 C12.81047006 -0.01870764 19.12174986 0.23084714 25.59472656 1.83203125 C27.93206571 2.39843024 27.93206571 2.39843024 31.62573242 2.26074219 C33.29696407 2.98166564 34.9669599 3.70613144 36.62182617 4.46386719 C39.54492245 5.62626805 42.53211106 6.21760786 45.61010742 6.83105469 C49.08768392 7.57239851 52.3854775 8.81115446 55.62573242 10.26074219 C55.95573242 10.92074219 56.28573242 11.58074219 56.62573242 12.26074219 C57.36823242 12.40511719 58.11073242 12.54949219 58.87573242 12.69824219 C62.01431166 13.3402243 63.90984187 14.57947661 66.62573242 16.26074219 C68.93588379 17.32659491 71.27227955 18.29167336 73.62573242 19.26074219 C73.62573242 19.92074219 73.62573242 20.58074219 73.62573242 21.26074219 C74.53323242 21.50824219 75.44073242 21.75574219 76.37573242 22.01074219 C79.78144701 23.32063241 81.21492678 24.60054286 83.62573242 27.26074219 C84.61573242 27.92074219 85.60573242 28.58074219 86.62573242 29.26074219 C86.62573242 29.92074219 86.62573242 30.58074219 86.62573242 31.26074219 C87.18518555 31.34066406 87.74463867 31.42058594 88.32104492 31.50292969 C96.692255 34.25549707 103.41428388 44.19920433 108.75073242 50.94824219 C110.589855 53.3207057 110.589855 53.3207057 112.87573242 55.38574219 C114.62573242 57.26074219 114.62573242 57.26074219 114.62573242 60.26074219 C115.28573242 60.26074219 115.94573242 60.26074219 116.62573242 60.26074219 C117.01245117 60.98519531 117.39916992 61.70964844 117.79760742 62.45605469 C120.01681097 66.57586325 122.19857023 70.62610122 124.81323242 74.51074219 C128.44751372 80.02482415 130.62573242 85.64703326 130.62573242 92.26074219 C131.28573242 92.26074219 131.94573242 92.26074219 132.62573242 92.26074219 C134.16150727 96.04898682 135.52492504 99.49748627 136.06323242 103.57324219 C136.50337229 107.18347746 136.50337229 107.18347746 137.62573242 110.19824219 C138.84045607 113.91833334 139.18653431 117.37070173 139.62573242 121.26074219 C139.9505666 122.59617157 140.28081793 123.9303577 140.62573242 125.26074219 C140.62573242 135.59407552 140.62573242 145.92740885 140.62573242 156.26074219 C139.96573242 156.26074219 139.30573242 156.26074219 138.62573242 156.26074219 C138.81135742 157.18886719 138.99698242 158.11699219 139.18823242 159.07324219 C139.62573242 162.26074219 139.62573242 162.26074219 138.62573242 165.26074219 C138.11560829 168.19395594 137.64584963 171.13141725 137.18823242 174.07324219 C137.00260742 174.79511719 136.81698242 175.51699219 136.62573242 176.26074219 C135.96573242 176.59074219 135.30573242 176.92074219 134.62573242 177.26074219 C134.39608176 179.26198371 134.16958771 181.2637572 133.97338867 183.26855469 C133.52001662 185.86652939 132.28678267 187.25363981 130.62573242 189.26074219 C130.25263343 190.91895992 129.91872265 192.58651233 129.62573242 194.26074219 C128.68823242 196.32324219 128.68823242 196.32324219 127.62573242 198.26074219 C127.31635742 198.90011719 127.00698242 199.53949219 126.68823242 200.19824219 C125.62573242 202.26074219 125.62573242 202.26074219 124.12573242 204.69824219 C122.56435706 207.21620083 122.56435706 207.21620083 121.56323242 209.94824219 C120.62573242 212.26074219 120.62573242 212.26074219 118.62573242 214.26074219 C118.29573242 214.92074219 117.96573242 215.58074219 117.62573242 216.26074219 C116.62573242 218.26074219 116.62573242 218.26074219 114.62573242 220.26074219 C110.59077524 225.16033305 106.64976082 230.22205726 103.12963867 235.50683594 C102.63334961 236.085625 102.13706055 236.66441406 101.62573242 237.26074219 C100.63573242 237.26074219 99.64573242 237.26074219 98.62573242 237.26074219 C98.25448242 238.15599609 98.25448242 238.15599609 97.87573242 239.06933594 C96.43254154 241.59942996 95.01059474 242.67926541 92.62573242 244.32324219 C89.84652982 246.24927046 88.55103676 247.37278567 86.62573242 250.26074219 C82.3508096 253.11069074 77.93497422 255.67697605 73.46557617 258.20996094 C72.2019515 258.93164891 70.94439685 259.66403779 69.69213867 260.40527344 C64.8388508 263.26074219 64.8388508 263.26074219 62.62573242 263.26074219 C62.23385742 263.73511719 61.84198242 264.20949219 61.43823242 264.69824219 C58.69576449 267.06243868 56.16669732 267.07104764 52.62573242 267.26074219 C49.41085685 265.1174918 48.26649735 263.70634853 46.62573242 260.26074219 C46.75073242 258.26074219 46.75073242 258.26074219 47.62573242 256.26074219 C47.97635742 255.41511719 48.32698242 254.56949219 48.68823242 253.69824219 C51.3850073 250.30552541 54.50296774 249.33738774 58.62573242 248.26074219 C59.28573242 248.26074219 59.94573242 248.26074219 60.62573242 248.26074219 C60.95573242 247.27074219 61.28573242 246.28074219 61.62573242 245.26074219 C63.27573242 245.26074219 64.92573242 245.26074219 66.62573242 245.26074219 C66.83198242 244.68324219 67.03823242 244.10574219 67.25073242 243.51074219 C69.615849 239.64055142 73.27106974 237.77250364 77.43823242 236.19824219 C78.16010742 235.88886719 78.88198242 235.57949219 79.62573242 235.26074219 C79.95573242 234.27074219 80.28573242 233.28074219 80.62573242 232.26074219 C82.00073242 230.57324219 82.00073242 230.57324219 83.62573242 229.26074219 C84.61573242 229.26074219 85.60573242 229.26074219 86.62573242 229.26074219 C86.95573242 228.27074219 87.28573242 227.28074219 87.62573242 226.26074219 C88.28573242 226.26074219 88.94573242 226.26074219 89.62573242 226.26074219 C90.01438477 225.39255859 90.01438477 225.39255859 90.41088867 224.50683594 C91.7167242 222.0925098 93.20672658 220.33944746 95.06323242 218.32324219 C97.6563632 215.44497462 99.64618614 212.59471487 101.62573242 209.26074219 C102.28573242 209.26074219 102.94573242 209.26074219 103.62573242 209.26074219 C103.72885742 208.70386719 103.83198242 208.14699219 103.93823242 207.57324219 C104.76751651 204.78383208 105.96872298 202.64683579 107.62573242 200.26074219 C108.28573242 200.26074219 108.94573242 200.26074219 109.62573242 200.26074219 C109.29573242 199.27074219 108.96573242 198.28074219 108.62573242 197.26074219 C109.94573242 196.60074219 111.26573242 195.94074219 112.62573242 195.26074219 C112.56385742 194.33261719 112.50198242 193.40449219 112.43823242 192.44824219 C112.65602538 188.74576193 113.12127409 188.66502219 115.62573242 186.26074219 C116.00706541 184.26933659 116.33898825 182.26795142 116.62573242 180.26074219 C117.29239909 178.92740885 117.95906576 177.59407552 118.62573242 176.26074219 C118.62573242 174.94074219 118.62573242 173.62074219 118.62573242 172.26074219 C119.28573242 171.93074219 119.94573242 171.60074219 120.62573242 171.26074219 C121.061796 169.27818095 121.061796 169.27818095 121.18823242 166.88574219 C121.26041992 165.99371094 121.33260742 165.10167969 121.40698242 164.18261719 C121.47916992 163.21839844 121.55135742 162.25417969 121.62573242 161.26074219 C121.8104289 159.21882 121.99784286 157.17714142 122.18823242 155.13574219 C122.33452373 153.51078335 122.48052777 151.88579849 122.62573242 150.26074219 C123.28573242 150.26074219 123.94573242 150.26074219 124.62573242 150.26074219 C124.62573242 143.66074219 124.62573242 137.06074219 124.62573242 130.26074219 C123.96573242 130.26074219 123.30573242 130.26074219 122.62573242 130.26074219 C122.66053711 129.29974609 122.66053711 129.29974609 122.69604492 128.31933594 C122.80994963 122.8600458 122.27344061 118.51281204 120.62573242 113.26074219 C120.62573242 111.59407552 120.62573242 109.92740885 120.62573242 108.26074219 C119.96573242 107.60074219 119.30573242 106.94074219 118.62573242 106.26074219 C118.06165051 104.50926787 117.57030875 102.73379605 117.12573242 100.94824219 C116.19495991 97.24032779 115.05795498 93.80234693 113.62573242 90.26074219 C113.40916992 88.96136719 113.40916992 88.96136719 113.18823242 87.63574219 C112.53614006 84.88246332 111.66628808 84.13805339 109.62573242 82.26074219 C108.62573242 80.44824219 108.62573242 80.44824219 107.62573242 78.26074219 C107.13073242 77.29136719 106.63573242 76.32199219 106.12573242 75.32324219 C104.62573242 72.26074219 104.62573242 72.26074219 103.62573242 69.44824219 C103.29573242 68.72636719 102.96573242 68.00449219 102.62573242 67.26074219 C101.63573242 66.93074219 100.64573242 66.60074219 99.62573242 66.26074219 C98.95132111 64.59719429 98.28570033 62.93007277 97.62573242 61.26074219 C95.81350708 59.19824279 95.81350708 59.19824279 93.62573242 57.26074219 C91.95906576 55.59407552 90.29239909 53.92740885 88.62573242 52.26074219 C87.86260742 51.53886719 87.09948242 50.81699219 86.31323242 50.07324219 C84.62573242 48.26074219 84.62573242 48.26074219 84.62573242 46.26074219 C84.00698242 46.13699219 83.38823242 46.01324219 82.75073242 45.88574219 C80.62573242 45.26074219 80.62573242 45.26074219 78.62573242 43.26074219 C76.22387772 41.32376259 74.59050863 40.24900092 71.62573242 39.26074219 C70.96573242 38.60074219 70.30573242 37.94074219 69.62573242 37.26074219 C64.84219438 33.74005819 60.3939937 30.87048952 54.62573242 29.26074219 C54.01084961 28.94492188 53.3959668 28.62910156 52.76245117 28.30371094 C50.45646063 27.17811775 48.22270652 26.50476776 45.75073242 25.82324219 C42.76947893 24.96959838 40.46720553 24.17114003 37.75073242 22.63574219 C33.68237167 20.84566346 29.93582453 20.70993636 25.52807617 20.47167969 C22.8137811 20.27440925 20.27816531 19.85449781 17.62573242 19.26074219 C17.62573242 18.93074219 17.62573242 18.60074219 17.62573242 18.26074219 C13.14168679 18.23598319 8.65767761 18.2178542 4.17358398 18.20581055 C2.64883735 18.20078854 1.12409551 18.19396969 -0.40063477 18.18530273 C-2.59498277 18.1731437 -4.78926698 18.1674925 -6.98364258 18.16308594 C-8.30332031 18.15784912 -9.62299805 18.1526123 -10.98266602 18.1472168 C-15.55655604 18.13918688 -15.55655604 18.13918688 -19.37426758 20.26074219 C-21.03789846 20.42116374 -22.70575636 20.53841237 -24.37426758 20.63574219 C-31.06358956 21.19101664 -36.63710403 22.89216041 -42.62426758 25.88574219 C-45.37426758 27.26074219 -45.37426758 27.26074219 -47.74926758 27.69824219 C-50.97696238 28.38989107 -53.53710792 29.75995521 -56.44848633 31.28417969 C-58.37426758 32.26074219 -58.37426758 32.26074219 -61.18676758 33.32324219 C-63.39751294 34.10875197 -63.39751294 34.10875197 -64.76489258 35.66308594 C-66.4939075 37.37951094 -68.22478894 38.51095844 -70.31176758 39.76074219 C-75.30402744 42.82168984 -79.26646069 46.05957605 -83.37426758 50.26074219 C-84.76875683 51.65791831 -86.16467162 53.05367262 -87.56176758 54.44824219 C-88.23594727 55.12242188 -88.91012695 55.79660156 -89.60473633 56.49121094 C-90.86124674 57.74772135 -92.11775716 59.00423177 -93.37426758 60.26074219 C-94.7234629 61.91459452 -96.05560486 63.58244418 -97.37426758 65.26074219 C-97.91051758 65.94136719 -98.44676758 66.62199219 -98.99926758 67.32324219 C-100.36369498 69.24584443 -101.37499398 71.12895851 -102.37426758 73.26074219 C-103.04093424 74.59407552 -103.70760091 75.92740885 -104.37426758 77.26074219 C-104.68364258 77.94136719 -104.99301758 78.62199219 -105.31176758 79.32324219 C-106.37426758 81.26074219 -106.37426758 81.26074219 -107.93676758 82.69824219 C-109.83838211 84.7652145 -109.85334392 86.52589299 -110.37426758 89.26074219 C-111.37426758 90.92740885 -112.37426758 92.59407552 -113.37426758 94.26074219 C-113.75262196 95.9177687 -114.08127735 97.58651233 -114.37426758 99.26074219 C-114.68425079 100.92787879 -114.99675293 102.59454898 -115.31176758 104.26074219 C-115.46516602 105.08574219 -115.61856445 105.91074219 -115.77661133 106.76074219 C-116.37426758 109.26074219 -116.37426758 109.26074219 -117.40161133 111.64746094 C-118.58750146 114.83364769 -118.79394326 117.68539086 -118.99926758 121.07324219 C-119.0740332 122.2346875 -119.14879883 123.39613281 -119.22583008 124.59277344 C-119.27481445 125.47320312 -119.32379883 126.35363281 -119.37426758 127.26074219 C-120.03426758 127.26074219 -120.69426758 127.26074219 -121.37426758 127.26074219 C-121.37426758 136.50074219 -121.37426758 145.74074219 -121.37426758 155.26074219 C-120.71426758 155.26074219 -120.05426758 155.26074219 -119.37426758 155.26074219 C-119.41551758 156.29199219 -119.45676758 157.32324219 -119.49926758 158.38574219 C-119.37592166 162.20946579 -118.70551775 164.71074172 -117.37426758 168.26074219 C-117.04426758 169.43636719 -116.71426758 170.61199219 -116.37426758 171.82324219 C-115.52588781 174.73954765 -114.51294272 177.45201018 -113.37426758 180.26074219 C-112.21637284 183.94495271 -112.21637284 183.94495271 -113.37426758 186.26074219 C-112.71426758 186.26074219 -112.05426758 186.26074219 -111.37426758 186.26074219 C-111.10743164 186.96972656 -110.8405957 187.67871094 -110.56567383 188.40917969 C-106.84139252 197.32303331 -101.38531307 204.83733419 -95.09692383 212.08105469 C-93.37426758 214.26074219 -93.37426758 214.26074219 -93.37426758 216.26074219 C-91.65357336 217.77658586 -91.65357336 217.77658586 -89.49926758 219.26074219 C-87.27624501 220.85430676 -85.31192033 222.32308943 -83.37426758 224.26074219 C-83.37426758 225.25074219 -83.37426758 226.24074219 -83.37426758 227.26074219 C-82.38426758 226.93074219 -81.39426758 226.60074219 -80.37426758 226.26074219 C-79.65239258 227.00324219 -78.93051758 227.74574219 -78.18676758 228.51074219 C-74.54469794 232.07187694 -71.05682716 235.1796046 -66.37426758 237.26074219 C-66.37426758 237.92074219 -66.37426758 238.58074219 -66.37426758 239.26074219 C-65.05426758 239.26074219 -63.73426758 239.26074219 -62.37426758 239.26074219 C-62.37426758 240.25074219 -62.37426758 241.24074219 -62.37426758 242.26074219 C-60.45960391 242.13896531 -60.45960391 242.13896531 -58.37426758 241.26074219 C-56.71126793 238.85018965 -56.71126793 238.85018965 -55.37426758 236.26074219 C-54.71426758 235.60074219 -54.05426758 234.94074219 -53.37426758 234.26074219 C-53.04426758 233.60074219 -52.71426758 232.94074219 -52.37426758 232.26074219 C-51.71426758 232.26074219 -51.05426758 232.26074219 -50.37426758 232.26074219 C-50.37426758 231.27074219 -50.37426758 230.28074219 -50.37426758 229.26074219 C-49.71426758 228.60074219 -49.05426758 227.94074219 -48.37426758 227.26074219 C-48.37426758 226.27074219 -48.37426758 225.28074219 -48.37426758 224.26074219 C-47.64981445 224.22851562 -46.92536133 224.19628906 -46.17895508 224.16308594 C-42.205525 222.88472612 -40.69490063 220.16661224 -38.49926758 216.82324219 C-37.62446509 215.53534759 -36.74946413 214.24758778 -35.87426758 212.95996094 C-35.45016602 212.32622559 -35.02606445 211.69249023 -34.58911133 211.03955078 C-32.97459653 208.67553253 -31.22675991 206.41796805 -29.49926758 204.13574219 C-22.46025704 193.89718141 -20.6363834 180.65287139 -17.74145508 168.77246094 C-16.71304973 164.56969205 -15.60298389 160.40912249 -14.37426758 156.26074219 C-15.61563477 156.29554688 -16.85700195 156.33035156 -18.13598633 156.36621094 C-19.77789984 156.39435803 -21.41982803 156.4216572 -23.06176758 156.44824219 C-23.87838867 156.47337891 -24.69500977 156.49851563 -25.53637695 156.52441406 C-29.18881502 156.56877566 -31.98187831 156.39750651 -35.45629883 155.18652344 C-37.37426758 153.26074219 -37.37426758 153.26074219 -38.05395508 150.11230469 C-37.12911168 144.87152544 -34.7152978 141.78235322 -31.49926758 137.63574219 C-30.90500977 136.84232422 -30.31075195 136.04890625 -29.69848633 135.23144531 C-27.94113647 132.89398104 -26.16221094 130.57485469 -24.37426758 128.26074219 C-23.49663508 127.11753477 -22.61902768 125.97430809 -21.74145508 124.83105469 C-20.14674492 122.76266824 -18.54769257 120.6976232 -16.94458008 118.63574219 C-13.9520093 114.74516692 -11.1058365 110.75162614 -8.24926758 106.76074219 C-1.3582761 97.14002624 5.81309167 87.74019771 13.02270508 78.35693359 C14.1017635 76.94590776 15.13412651 75.49806795 16.11938477 74.02001953 C17.62573242 72.26074219 17.62573242 72.26074219 21.06323242 71.76074219 C24.62573242 72.26074219 24.62573242 72.26074219 27.06323242 73.88574219 C29.09930355 76.98057031 28.89055619 78.57925766 28.62573242 82.26074219 C27.94592906 84.77378577 27.21691759 87.18002911 26.37573242 89.63574219 C23.71072721 97.76092029 21.62528852 105.94817709 19.62573242 114.26074219 C18.96397217 116.92866257 18.29518304 119.59473618 17.62573242 122.26074219 C18.18035156 122.24503174 18.7349707 122.22932129 19.30639648 122.21313477 C21.82940395 122.15061356 24.35224819 122.11169877 26.87573242 122.07324219 C27.74842773 122.04810547 28.62112305 122.02296875 29.52026367 121.99707031 C33.09932243 121.95608872 35.90226301 121.96290673 39.23510742 123.33496094 C41.50133911 126.47330988 41.20248978 128.47504622 40.62573242 132.26074219 C39.14905554 135.19676576 37.28087646 137.76056263 35.31323242 140.38574219 C34.3160209 141.76253745 33.31989947 143.14012301 32.32495117 144.51855469 C31.61798096 145.48003418 31.61798096 145.48003418 30.89672852 146.4609375 C29.47726058 148.41343213 29.47726058 148.41343213 27.89526367 151.25292969 C27.47631836 151.91550781 27.05737305 152.57808594 26.62573242 153.26074219 C25.96573242 153.26074219 25.30573242 153.26074219 24.62573242 153.26074219 C24.62573242 154.25074219 24.62573242 155.24074219 24.62573242 156.26074219 C23.96573242 156.26074219 23.30573242 156.26074219 22.62573242 156.26074219 C22.52260742 156.83824219 22.41948242 157.41574219 22.31323242 158.01074219 C21.52808777 160.58030652 20.24825442 162.14440914 18.62573242 164.26074219 C18.62573242 164.92074219 18.62573242 165.58074219 18.62573242 166.26074219 C17.82135742 166.73511719 17.01698242 167.20949219 16.18823242 167.69824219 C13.33392482 169.06057891 13.33392482 169.06057891 12.62573242 172.26074219 C11.96573242 172.26074219 11.30573242 172.26074219 10.62573242 172.26074219 C9.63573242 175.23074219 9.63573242 175.23074219 8.62573242 178.26074219 C7.96573242 178.26074219 7.30573242 178.26074219 6.62573242 178.26074219 C6.62573242 178.92074219 6.62573242 179.58074219 6.62573242 180.26074219 C5.96573242 180.92074219 5.30573242 181.58074219 4.62573242 182.26074219 C4.13073242 183.12699219 3.63573242 183.99324219 3.12573242 184.88574219 C2.38323242 186.06136719 2.38323242 186.06136719 1.62573242 187.26074219 C0.96573242 187.26074219 0.30573242 187.26074219 -0.37426758 187.26074219 C-0.41551758 187.98261719 -0.45676758 188.70449219 -0.49926758 189.44824219 C-1.71685217 193.36190695 -4.24472174 194.70601089 -7.37426758 197.26074219 C-8.65681401 199.79844222 -8.65681401 199.79844222 -9.37426758 202.26074219 C-10.03426758 203.25074219 -10.69426758 204.24074219 -11.37426758 205.26074219 C-12.03426758 205.26074219 -12.69426758 205.26074219 -13.37426758 205.26074219 C-13.45676758 205.81761719 -13.53926758 206.37449219 -13.62426758 206.94824219 C-14.6242494 210.03151948 -16.27285036 211.7722218 -18.37426758 214.26074219 C-26.14319954 224.06324528 -26.14319954 224.06324528 -33.37426758 234.26074219 C-34.03426758 234.26074219 -34.69426758 234.26074219 -35.37426758 234.26074219 C-35.60114258 235.12699219 -35.82801758 235.99324219 -36.06176758 236.88574219 C-37.57769919 240.78385205 -39.59716368 243.15303068 -42.37426758 246.26074219 C-44.57566826 248.92910666 -46.53309293 251.51387008 -48.37426758 254.44824219 C-50.39357028 257.28788661 -51.36111829 257.85460585 -54.37426758 259.26074219 C-55.64231324 261.29433699 -55.64231324 261.29433699 -56.37426758 263.26074219 C-61.71277355 263.76917133 -64.10653212 262.36454979 -68.37426758 259.26074219 C-69.03426758 259.26074219 -69.69426758 259.26074219 -70.37426758 259.26074219 C-71.03426758 258.60074219 -71.69426758 257.94074219 -72.37426758 257.26074219 C-73.69174082 256.56325636 -75.02340951 255.89114262 -76.37426758 255.26074219 C-76.37426758 254.60074219 -76.37426758 253.94074219 -76.37426758 253.26074219 C-77.36426758 253.26074219 -78.35426758 253.26074219 -79.37426758 253.26074219 C-79.37426758 252.27074219 -79.37426758 251.28074219 -79.37426758 250.26074219 C-80.26114258 250.21949219 -81.14801758 250.17824219 -82.06176758 250.13574219 C-86.58593864 248.94067813 -87.57157379 246.91981463 -90.37426758 243.26074219 C-91.03426758 243.26074219 -91.69426758 243.26074219 -92.37426758 243.26074219 C-92.37426758 242.60074219 -92.37426758 241.94074219 -92.37426758 241.26074219 C-92.9440332 241.01582031 -93.51379883 240.77089844 -94.10083008 240.51855469 C-101.33828593 236.51432654 -106.67664876 228.90858457 -111.37426758 222.26074219 C-111.9234082 221.5865625 -112.47254883 220.91238281 -113.03833008 220.21777344 C-114.37426758 218.26074219 -114.37426758 218.26074219 -114.37426758 215.26074219 C-115.03426758 214.93074219 -115.69426758 214.60074219 -116.37426758 214.26074219 C-117.59301758 212.77246094 -117.59301758 212.77246094 -118.87426758 210.94824219 C-119.29708008 210.35398437 -119.71989258 209.75972656 -120.15551758 209.14746094 C-124.04874145 203.1204509 -127.00930617 196.28054372 -128.37426758 189.26074219 C-128.88989258 188.45636719 -129.40551758 187.65199219 -129.93676758 186.82324219 C-131.66270834 183.74656518 -131.45137805 181.73071363 -131.37426758 178.26074219 C-132.03426758 177.60074219 -132.69426758 176.94074219 -133.37426758 176.26074219 C-133.80933268 174.15081864 -134.15125997 172.02105117 -134.43676758 169.88574219 C-135.16434274 164.52484552 -135.16434274 164.52484552 -136.37426758 159.26074219 C-137.06571837 156.72542263 -137.37426758 154.93133349 -137.37426758 152.26074219 C-137.38595849 150.1070962 -137.39768207 147.9534504 -137.40942383 145.79980469 C-137.41635413 143.8395194 -137.42325751 141.87923385 -137.42919922 139.91894531 C-137.43423149 138.56704937 -137.44105789 137.21515889 -137.44970703 135.86328125 C-137.46189473 133.90464631 -137.46698767 131.94597132 -137.47192383 129.98730469 C-137.47977905 128.23281006 -137.47977905 128.23281006 -137.48779297 126.44287109 C-137.38582652 123.58474043 -137.03349932 121.03648907 -136.37426758 118.26074219 C-135.71426758 118.26074219 -135.05426758 118.26074219 -134.37426758 118.26074219 C-134.55989258 117.70386719 -134.74551758 117.14699219 -134.93676758 116.57324219 C-135.46079692 113.80337283 -135.02550579 111.99594266 -134.37426758 109.26074219 C-134.03481962 107.2617709 -133.70005142 105.2619858 -133.37426758 103.26074219 C-132.38426758 103.26074219 -131.39426758 103.26074219 -130.37426758 103.26074219 C-130.74551758 102.27074219 -130.74551758 102.27074219 -131.12426758 101.26074219 C-131.44609029 97.39886965 -130.18032338 95.50390226 -128.35864258 92.17871094 C-127.19074975 89.90317373 -126.78203711 87.77532098 -126.37426758 85.26074219 C-124.11945675 78.97948344 -120.8232771 73.20758153 -117.55786133 67.40917969 C-116.77524654 65.98859179 -116.02807279 64.54783736 -115.31958008 63.08886719 C-114.27360282 61.06606819 -113.01025286 59.82559768 -111.37426758 58.26074219 C-111.04426758 57.60074219 -110.71426758 56.94074219 -110.37426758 56.26074219 C-109.71426758 56.26074219 -109.05426758 56.26074219 -108.37426758 56.26074219 C-108.29176758 55.51824219 -108.20926758 54.77574219 -108.12426758 54.01074219 C-107.21224278 50.66665125 -105.90841604 49.57767793 -103.37426758 47.26074219 C-102.50801758 46.14699219 -102.50801758 46.14699219 -101.62426758 45.01074219 C-97.72900121 40.24986107 -93.50445983 35.68087036 -88.37426758 32.26074219 C-86.11587515 30.50421474 -83.89379793 28.73327346 -81.77661133 26.80761719 C-77.61038156 23.04946915 -73.46815735 20.5713726 -68.37426758 18.26074219 C-65.79735341 17.0359731 -63.77694573 15.82863702 -61.43676758 14.13574219 C-58.30135661 12.21610282 -56.94867142 11.84022409 -53.37426758 12.26074219 C-53.37426758 11.60074219 -53.37426758 10.94074219 -53.37426758 10.26074219 C-52.28114258 9.95136719 -51.18801758 9.64199219 -50.06176758 9.32324219 C-45.65924456 8.09313559 -45.65924456 8.09313559 -41.49926758 6.26074219 C-39.10305656 5.13311347 -36.98155075 4.73479367 -34.37426758 4.26074219 C-32.35867153 3.74175638 -30.34784209 3.20802874 -28.33911133 2.66308594 C-26.37426758 2.26074219 -26.37426758 2.26074219 -22.37426758 2.26074219 C-21.12516602 1.93589844 -19.87606445 1.61105469 -18.58911133 1.27636719 C-12.44888406 -0.14534222 -6.26701556 -0.03877273 0 0 Z M-118.37426758 107.26074219 C-117.37426758 109.26074219 -117.37426758 109.26074219 -117.37426758 109.26074219 Z M-118.37426758 170.26074219 C-117.37426758 172.26074219 -117.37426758 172.26074219 -117.37426758 172.26074219 Z " fill="#63B143" transform="translate(235.374267578125,54.7392578125)"/>
<path d="M0 0 C1.13598633 0.00483398 1.13598633 0.00483398 2.29492188 0.00976562 C3.47344727 0.02233398 3.47344727 0.02233398 4.67578125 0.03515625 C5.47306641 0.03966797 6.27035156 0.04417969 7.09179688 0.04882812 C9.05732382 0.06059775 11.0228121 0.07853277 12.98828125 0.09765625 C14.85090193 5.07618513 14.99288841 7.13889117 12.98828125 12.09765625 C12.84003906 12.87882812 12.69179688 13.66 12.5390625 14.46484375 C11.96417096 17.21290684 11.07512573 19.57490486 9.98828125 22.16015625 C8.74629361 25.12357529 7.68436646 27.95802194 6.98828125 31.09765625 C6.32828125 31.09765625 5.66828125 31.09765625 4.98828125 31.09765625 C5.31828125 32.08765625 5.64828125 33.07765625 5.98828125 34.09765625 C7.03628906 34.14664063 8.08429688 34.195625 9.1640625 34.24609375 C10.54299479 34.32113768 11.92189975 34.39668482 13.30078125 34.47265625 C14.3362207 34.5190625 14.3362207 34.5190625 15.39257812 34.56640625 C19.05818914 34.77890544 20.86728917 35.01699486 23.98828125 37.09765625 C24.17003906 36.19273437 24.17003906 36.19273437 24.35546875 35.26953125 C24.52304687 34.4703125 24.690625 33.67109375 24.86328125 32.84765625 C25.02570313 32.05875 25.188125 31.26984375 25.35546875 30.45703125 C25.98135482 28.12348073 26.90337648 26.24541488 27.98828125 24.09765625 C28.23578125 22.51984375 28.23578125 22.51984375 28.48828125 20.91015625 C28.65328125 19.98203125 28.81828125 19.05390625 28.98828125 18.09765625 C29.64828125 17.76765625 30.30828125 17.43765625 30.98828125 17.09765625 C31.21884213 15.12142018 31.44540795 13.14448354 31.63671875 11.1640625 C32.11071132 8.37803952 33.45159774 6.43608767 34.98828125 4.09765625 C34.98828125 3.10765625 34.98828125 2.11765625 34.98828125 1.09765625 C38.71062135 -0.14312378 42.17624158 -0.04789834 46.05078125 -0.02734375 C46.78361328 -0.03121094 47.51644531 -0.03507812 48.27148438 -0.0390625 C53.73491143 -0.02902866 53.73491143 -0.02902866 55.98828125 1.09765625 C57.15393442 6.05168222 57.0939453 9.44303046 54.98828125 14.09765625 C54.32828125 14.42765625 53.66828125 14.75765625 52.98828125 15.09765625 C52.59833023 16.96258027 52.59833023 16.96258027 52.48828125 19.09765625 C52.33203125 21.28515625 52.33203125 21.28515625 51.98828125 23.09765625 C51.32828125 23.42765625 50.66828125 23.75765625 49.98828125 24.09765625 C49.29899911 26.14731229 49.29899911 26.14731229 48.86328125 28.53515625 C48.69570313 29.33824219 48.528125 30.14132812 48.35546875 30.96875 C47.93162543 33.06608282 47.93162543 33.06608282 47.98828125 35.09765625 C50.60328893 32.73169692 52.37827728 30.23716399 53.98828125 27.09765625 C53.49328125 26.10765625 53.49328125 26.10765625 52.98828125 25.09765625 C53.98828125 23.09765625 54.98828125 21.09765625 55.98828125 19.09765625 C56.76091497 16.45003242 57.36112265 13.78547884 57.98828125 11.09765625 C58.31828125 10.43765625 58.64828125 9.77765625 58.98828125 9.09765625 C59.45366876 7.02879724 59.87926625 4.95479529 60.29296875 2.875 C60.52242188 2.28847656 60.751875 1.70195312 60.98828125 1.09765625 C64.67488822 -0.13121274 68.088911 -0.04795362 71.92578125 -0.02734375 C72.64185547 -0.03121094 73.35792969 -0.03507812 74.09570312 -0.0390625 C77.53006281 -0.03269668 80.70693051 0.01815183 83.98828125 1.09765625 C82.32709895 9.64087949 79.78842758 17.86522604 76.98828125 26.09765625 C76.32828125 26.09765625 75.66828125 26.09765625 74.98828125 26.09765625 C75.48328125 27.58265625 75.48328125 27.58265625 75.98828125 29.09765625 C74.14815677 36.45815416 71.4199901 43.33822973 67.98828125 50.09765625 C66.81471069 50.08980103 66.81471069 50.08980103 65.61743164 50.08178711 C62.09522292 50.06108519 58.57302695 50.04801787 55.05078125 50.03515625 C53.81908203 50.02677734 52.58738281 50.01839844 51.31835938 50.00976562 C49.56362305 50.00493164 49.56362305 50.00493164 47.7734375 50 C46.6894165 49.99476318 45.60539551 49.98952637 44.48852539 49.98413086 C42.04778177 49.81338728 42.04778177 49.81338728 40.98828125 51.09765625 C35.04993197 51.58683062 29.52304726 51.35674442 23.98828125 49.09765625 C22.05078125 46.97265625 22.05078125 46.97265625 20.98828125 45.09765625 C20.32828125 46.74765625 19.66828125 48.39765625 18.98828125 50.09765625 C13.4707332 50.17168418 7.95347269 50.22619991 2.43554688 50.26245117 C0.55756599 50.2775595 -1.32037951 50.29804719 -3.19824219 50.32397461 C-5.89396894 50.36026871 -8.58923021 50.3773617 -11.28515625 50.390625 C-12.12791107 50.40610886 -12.97066589 50.42159271 -13.83895874 50.43754578 C-16.20458984 50.43823242 -16.20458984 50.43823242 -20.01171875 50.09765625 C-20.67171875 49.10765625 -21.33171875 48.11765625 -22.01171875 47.09765625 C-21.02171875 46.60265625 -21.02171875 46.60265625 -20.01171875 46.09765625 C-20.13546875 44.86015625 -20.13546875 44.86015625 -20.26171875 43.59765625 C-19.97931914 39.64406173 -18.81499089 37.46704137 -16.96484375 34.046875 C-15.69069583 31.44113807 -15.33039906 28.96577901 -15.01171875 26.09765625 C-14.40255885 22.52971968 -13.43854177 19.42690995 -12.01171875 16.09765625 C-11.35171875 16.09765625 -10.69171875 16.09765625 -10.01171875 16.09765625 C-10.05296875 14.98390625 -10.09421875 13.87015625 -10.13671875 12.72265625 C-10.01171875 9.09765625 -10.01171875 9.09765625 -8.01171875 7.09765625 C-7.61407612 5.10944312 -7.27396526 3.10821286 -7.01171875 1.09765625 C-4.30455633 0.19526878 -2.77395107 -0.02085677 0 0 Z M54.98828125 22.09765625 C55.98828125 24.09765625 55.98828125 24.09765625 55.98828125 24.09765625 Z " fill="#F4F4F3" transform="translate(246.01171875,353.90234375)"/>
<path d="M0 0 C1.53515478 0.00502957 3.07031116 0.00958988 4.60546875 0.01367188 C8.3203467 0.02455161 12.03516259 0.04173423 15.75 0.0625 C17.0840394 4.06461819 16.15012984 6.14213644 14.75 10.0625 C13.125 11.8125 13.125 11.8125 11.75 13.0625 C11.75 14.0525 11.75 15.0425 11.75 16.0625 C8.58759418 18.17077055 7.24342531 18.40067465 3.5625 18.6875 C2.66144531 18.76226562 1.76039063 18.83703125 0.83203125 18.9140625 C0.14496094 18.96304687 -0.54210937 19.01203125 -1.25 19.0625 C-1.25 20.0525 -1.25 21.0425 -1.25 22.0625 C-2.24 22.5575 -2.24 22.5575 -3.25 23.0625 C-3.63218767 24.71864657 -3.96395102 26.38707024 -4.25 28.0625 C-4.58 28.7225 -4.91 29.3825 -5.25 30.0625 C-5.91 30.0625 -6.57 30.0625 -7.25 30.0625 C-6.755 32.5375 -6.755 32.5375 -6.25 35.0625 C-3.28 35.5575 -3.28 35.5575 -0.25 36.0625 C0.12239784 42.64152853 0.12239784 42.64152853 -1.6875 44.6875 C-2.4609375 45.368125 -2.4609375 45.368125 -3.25 46.0625 C-3.97197162 48.66861077 -3.97197162 48.66861077 -4.25 51.0625 C-4.91 51.0625 -5.57 51.0625 -6.25 51.0625 C-6.25 51.7225 -6.25 52.3825 -6.25 53.0625 C-11.3911629 53.13699853 -16.53200729 53.19126593 -21.67358398 53.22729492 C-23.4203845 53.24232429 -25.16714765 53.26275354 -26.91381836 53.28881836 C-29.43352515 53.3254608 -31.95273039 53.34228492 -34.47265625 53.35546875 C-35.6324575 53.37869453 -35.6324575 53.37869453 -36.81568909 53.40238953 C-42.06615665 53.40399674 -45.51755969 52.31686783 -50.25 50.0625 C-53.04340157 49.80859778 -53.04340157 49.80859778 -55.25 50.0625 C-55.25 48.4125 -55.25 46.7625 -55.25 45.0625 C-54.59 45.0625 -53.93 45.0625 -53.25 45.0625 C-52.14363605 42.67181266 -52.14363605 42.67181266 -51.25 40.0625 C-51.58 39.4025 -51.91 38.7425 -52.25 38.0625 C-51.59 38.0625 -50.93 38.0625 -50.25 38.0625 C-49.816875 36.6703125 -49.816875 36.6703125 -49.375 35.25 C-48.25 32.0625 -48.25 32.0625 -46.25 29.0625 C-43.125 28.375 -43.125 28.375 -40.25 28.0625 C-41.57 27.7325 -42.89 27.4025 -44.25 27.0625 C-43.92 25.7425 -43.59 24.4225 -43.25 23.0625 C-42.59 23.0625 -41.93 23.0625 -41.25 23.0625 C-40.65267181 20.29985711 -40.25 17.90217231 -40.25 15.0625 C-39.375 13.01953125 -39.375 13.01953125 -38.25 10.875 C-37.87875 10.15957031 -37.5075 9.44414062 -37.125 8.70703125 C-36.83625 8.16433594 -36.5475 7.62164062 -36.25 7.0625 C-37.9 7.0625 -39.55 7.0625 -41.25 7.0625 C-41.58 5.7425 -41.91 4.4225 -42.25 3.0625 C-39.04249324 0.92416216 -38.44709263 0.85079669 -34.8125 1 C-31.14769857 1.09598945 -27.62503951 0.94952399 -23.98046875 0.5703125 C-15.98713008 -0.13206712 -8.01626191 -0.04619068 0 0 Z " fill="#61AD41" transform="translate(145.25,350.9375)"/>
<path d="M0 0 C1.34233704 0.00493217 1.34233704 0.00493217 2.71179199 0.00996399 C4.60139247 0.02037504 6.49096117 0.04030845 8.38037109 0.0690918 C11.27068686 0.11312034 14.16017177 0.13052367 17.05078125 0.14257812 C18.88803279 0.15600487 20.72527413 0.17092858 22.5625 0.1875 C23.42613159 0.19488693 24.28976318 0.20227386 25.17956543 0.20988464 C26.39102234 0.2291375 26.39102234 0.2291375 27.62695312 0.2487793 C28.33436646 0.2586235 29.04177979 0.26846771 29.77062988 0.27861023 C31.87065787 0.43232562 33.75732982 0.85717921 35.78125 1.42578125 C35.25093862 5.93342795 33.52903884 8.84532913 30.78125 12.42578125 C30.12125 12.42578125 29.46125 12.42578125 28.78125 12.42578125 C28.45125 13.41578125 28.12125 14.40578125 27.78125 15.42578125 C19.86125 15.75578125 11.94125 16.08578125 3.78125 16.42578125 C3.78125 18.73578125 3.78125 21.04578125 3.78125 23.42578125 C2.90625 25.71875 2.90625 25.71875 1.78125 27.61328125 C-0.05457974 30.74311598 -0.21875 31.51542234 -0.21875 35.42578125 C0.77125 35.42578125 1.76125 35.42578125 2.78125 35.42578125 C4.13320869 32.45147213 4.8237295 30.07380826 5.21875 26.80078125 C5.80945037 23.25657902 6.0087587 22.48925462 8.78125 20.42578125 C10.95776367 20.08520508 10.95776367 20.08520508 13.44921875 20.1328125 C14.34189453 20.14248047 15.23457031 20.15214844 16.15429688 20.16210938 C17.08306641 20.18724609 18.01183594 20.21238281 18.96875 20.23828125 C19.90912109 20.25181641 20.84949219 20.26535156 21.81835938 20.27929688 C24.13990038 20.31465029 26.46028653 20.36399451 28.78125 20.42578125 C29.99868002 25.28733067 29.1249857 26.99872492 26.78125 31.42578125 C26.39048159 32.79083036 26.03708596 34.16704672 25.71875 35.55078125 C24.97398022 38.62916299 24.19809241 40.68655258 22.78125 43.42578125 C22.40456656 45.0831884 22.06067455 46.74923396 21.78125 48.42578125 C21.12125 48.42578125 20.46125 48.42578125 19.78125 48.42578125 C19.78125 49.08578125 19.78125 49.74578125 19.78125 50.42578125 C5.92125 50.42578125 -7.93875 50.42578125 -22.21875 50.42578125 C-22.71375 48.94078125 -22.71375 48.94078125 -23.21875 47.42578125 C-24.20875 47.09578125 -25.19875 46.76578125 -26.21875 46.42578125 C-26.63261916 41.04548216 -25.45584068 36.30017608 -23.21875 31.42578125 C-22.55875 31.09578125 -21.89875 30.76578125 -21.21875 30.42578125 C-20.86465561 28.43123715 -20.86465561 28.43123715 -20.78125 26.11328125 C-20.44320541 22.21654903 -19.72980112 20.45996802 -17.21875 17.42578125 C-16.8638546 15.42949461 -16.53296071 13.42887454 -16.21875 11.42578125 C-12.78249104 1.93516126 -9.69181702 -0.19647866 0 0 Z M-25.21875 41.42578125 C-24.21875 43.42578125 -24.21875 43.42578125 -24.21875 43.42578125 Z " fill="#F2F2F1" transform="translate(346.21875,353.57421875)"/>
<path d="M0 0 C0.83418961 -0.00960754 1.66837921 -0.01921509 2.52784729 -0.02911377 C3.87325844 -0.03548859 3.87325844 -0.03548859 5.24584961 -0.04199219 C6.16909531 -0.04769226 7.092341 -0.05339233 8.04356384 -0.05926514 C9.99452571 -0.06870775 11.94550347 -0.07524619 13.89648438 -0.07910156 C16.89017157 -0.08884109 19.88318194 -0.11988486 22.87670898 -0.15136719 C24.77058511 -0.15789396 26.66446615 -0.16314571 28.55834961 -0.16699219 C29.45731461 -0.17933899 30.3562796 -0.19168579 31.28248596 -0.20440674 C32.11352341 -0.20140564 32.94456085 -0.19840454 33.80078125 -0.1953125 C34.89973473 -0.20078094 34.89973473 -0.20078094 36.02088928 -0.20635986 C37.83569336 0.16113281 37.83569336 0.16113281 39.83569336 3.16113281 C40.13647461 5.31738281 40.13647461 5.31738281 40.14819336 7.66113281 C40.16495117 8.43457031 40.18170898 9.20800781 40.19897461 10.00488281 C39.74808019 12.68115938 38.72184429 13.28949073 36.83569336 15.16113281 C36.26245529 17.43274536 36.26245529 17.43274536 36.14819336 19.84863281 C36.08245117 20.656875 36.01670898 21.46511719 35.94897461 22.29785156 C35.9115918 22.91273438 35.87420898 23.52761719 35.83569336 24.16113281 C34.84569336 24.49113281 33.85569336 24.82113281 32.83569336 25.16113281 C32.83569336 26.81113281 32.83569336 28.46113281 32.83569336 30.16113281 C31.84569336 30.49113281 30.85569336 30.82113281 29.83569336 31.16113281 C29.83569336 32.15113281 29.83569336 33.14113281 29.83569336 34.16113281 C26.37069336 34.65613281 26.37069336 34.65613281 22.83569336 35.16113281 C22.83569336 35.49113281 22.83569336 35.82113281 22.83569336 36.16113281 C16.89569336 36.49113281 10.95569336 36.82113281 4.83569336 37.16113281 C3.44593178 41.20946822 3.44593178 41.20946822 2.39819336 45.34863281 C1.66867581 47.69930047 0.74823307 48.61936702 -1.16430664 50.16113281 C-3.24902344 50.50170898 -3.24902344 50.50170898 -5.61352539 50.45410156 C-6.46108398 50.44443359 -7.30864258 50.43476563 -8.18188477 50.42480469 C-9.06295898 50.39966797 -9.9440332 50.37453125 -10.85180664 50.34863281 C-11.74448242 50.33509766 -12.6371582 50.3215625 -13.55688477 50.30761719 C-15.7599683 50.2722736 -17.96183246 50.22293774 -20.16430664 50.16113281 C-20.16430664 49.50113281 -20.16430664 48.84113281 -20.16430664 48.16113281 C-20.82430664 48.16113281 -21.48430664 48.16113281 -22.16430664 48.16113281 C-22.16430664 47.50113281 -22.16430664 46.84113281 -22.16430664 46.16113281 C-21.17430664 45.66613281 -21.17430664 45.66613281 -20.16430664 45.16113281 C-19.90710847 43.13569725 -19.65588543 41.10763058 -19.50805664 39.07128906 C-19.16430664 37.16113281 -19.16430664 37.16113281 -17.16430664 35.16113281 C-16.81251467 32.83051101 -16.48100485 30.49678214 -16.16430664 28.16113281 C-15.52527547 26.48367599 -14.86089027 24.81551894 -14.16430664 23.16113281 C-13.99930664 22.33613281 -13.83430664 21.51113281 -13.66430664 20.66113281 C-13.12670135 17.97310637 -12.19199733 15.70013334 -11.16430664 13.16113281 C-10.47750722 10.83364588 -9.80669621 8.50126625 -9.16430664 6.16113281 C-8.83430664 6.16113281 -8.50430664 6.16113281 -8.16430664 6.16113281 C-7.83430664 4.51113281 -7.50430664 2.86113281 -7.16430664 1.16113281 C-4.44125592 0.25344924 -2.80421933 0.02610636 0 0 Z M10.83569336 14.16113281 C10.50569336 15.15113281 10.17569336 16.14113281 9.83569336 17.16113281 C10.16569336 17.82113281 10.49569336 18.48113281 10.83569336 19.16113281 C12.48569336 18.83113281 14.13569336 18.50113281 15.83569336 18.16113281 C16.16569336 16.84113281 16.49569336 15.52113281 16.83569336 14.16113281 C14.85569336 14.16113281 12.87569336 14.16113281 10.83569336 14.16113281 Z " fill="#F9F9F7" transform="translate(195.164306640625,353.8388671875)"/>
<path d="M0 0 C1.17088772 3.51266316 0.73968865 4.40650083 -0.4375 7.8125 C-1.65994393 11.67700017 -2.59825868 14.911899 -2 19 C-1.00250583 20.76774167 -1.00250583 20.76774167 1 22 C3.62939205 22.37644848 6.05072472 22.60133087 8.6875 22.6875 C9.7403418 22.73874023 9.7403418 22.73874023 10.81445312 22.79101562 C12.54241387 22.87329947 14.27118072 22.9383324 16 23 C14.59213375 26.01443015 12.93552319 28.59669227 10.953125 31.265625 C10.355 32.07386719 9.756875 32.88210937 9.140625 33.71484375 C8.51671875 34.55144531 7.8928125 35.38804687 7.25 36.25 C6.6415625 37.07113281 6.033125 37.89226562 5.40625 38.73828125 C4.19720463 40.36842576 2.98565421 41.9967156 1.77148438 43.62304688 C0.58985109 45.208546 -0.58593966 46.7984161 -1.75585938 48.39257812 C-2.29533203 49.12412109 -2.83480469 49.85566406 -3.390625 50.609375 C-3.87047852 51.26389648 -4.35033203 51.91841797 -4.84472656 52.59277344 C-5.41658691 53.28935059 -5.41658691 53.28935059 -6 54 C-6.33 54 -6.66 54 -7 54 C-6.48166476 48.98942604 -5.59600607 44.78801821 -4 40 C-3.67886661 37.23825289 -3.51610588 35.74585184 -5.0390625 33.3984375 C-8.01119152 31.27887139 -11.15822935 31.42783564 -14.6875 31.3125 C-15.7403418 31.26125977 -15.7403418 31.26125977 -16.81445312 31.20898438 C-18.54241387 31.12670053 -20.27118072 31.0616676 -22 31 C-20.54835877 26.69267111 -18.24516922 23.44668703 -15.4375 19.9375 C-14.54093488 18.79614738 -13.64511942 17.65420553 -12.75 16.51171875 C-12.29496094 15.93341309 -11.83992187 15.35510742 -11.37109375 14.75927734 C-9.18482083 11.95402758 -7.0608554 9.10300094 -4.9375 6.25 C-1.10769231 1.10769231 -1.10769231 1.10769231 0 0 Z " fill="#F7F9F5" transform="translate(240,167)"/>
<path d="M0 0 C0.33 0.66 0.66 1.32 1 2 C1.99 2.33 2.98 2.66 4 3 C3.67 3.66 3.34 4.32 3 5 C3.99 5 4.98 5 6 5 C6 4.34 6 3.68 6 3 C8.97 3.33 11.94 3.66 15 4 C15 4.33 15 4.66 15 5 C13.02 5.33 11.04 5.66 9 6 C9 6.66 9 7.32 9 8 C10.65 8 12.3 8 14 8 C14 8.66 14 9.32 14 10 C7.375 10.125 7.375 10.125 4 9 C4 9.66 4 10.32 4 11 C6.97 11.495 6.97 11.495 10 12 C10 12.66 10 13.32 10 14 C8.41632253 13.85795259 6.83306682 13.71119847 5.25 13.5625 C4.36828125 13.48128906 3.4865625 13.40007812 2.578125 13.31640625 C0.30649548 13.03761535 -1.79851823 12.61209423 -4 12 C-3.67 10.68 -3.34 9.36 -3 8 C-2.34 8 -1.68 8 -1 8 C-0.40267181 5.23735711 0 2.83967231 0 0 Z " fill="#569A3B" transform="translate(105,366)"/>
<path d="M0 0 C-0.33 0.66 -0.66 1.32 -1 2 C-3.5625 2.625 -3.5625 2.625 -6 3 C-4.35 3.33 -2.7 3.66 -1 4 C-1 4.66 -1 5.32 -1 6 C-2.32 6.33 -3.64 6.66 -5 7 C-4.34 7.33 -3.68 7.66 -3 8 C-3 8.66 -3 9.32 -3 10 C-6.96 10 -10.92 10 -15 10 C-15 9.01 -15 8.02 -15 7 C-14.01 6.34 -13.02 5.68 -12 5 C-12 4.34 -12 3.68 -12 3 C-11.34 2.67 -10.68 2.34 -10 2 C-11.32 2 -12.64 2 -14 2 C-14.33 3.32 -14.66 4.64 -15 6 C-15.66 6 -16.32 6 -17 6 C-17.33 6.66 -17.66 7.32 -18 8 C-17.42415568 5.61435923 -16.77772405 3.33317216 -16 1 C-10.19444518 -1.03703678 -6.01610399 -1.07430428 0 0 Z " fill="#41752E" transform="translate(125,357)"/>
<path d="M0 0 C0.99 0.66 1.98 1.32 3 2 C2.34 2 1.68 2 1 2 C0.78085938 2.54398437 0.56171875 3.08796875 0.3359375 3.6484375 C-1.44008692 6.77465593 -3.8340408 9.12416121 -6.375 11.625 C-6.85710937 12.11484375 -7.33921875 12.6046875 -7.8359375 13.109375 C-10.37243881 15.63209098 -12.66236091 17.65545345 -16 19 C-14.89961924 11.18910051 -5.96348973 4.58729979 0 0 Z " fill="#F2F2F1" transform="translate(174,115)"/>
<path d="M0 0 C2.66117904 1.50800146 4.10960455 3.60355634 5.875 6.0625 C1.86075735 7.40058088 -1.93926024 7.26182094 -6.125 7.0625 C-7.115 6.4025 -8.105 5.7425 -9.125 5.0625 C-9.125 6.3825 -9.125 7.7025 -9.125 9.0625 C-10.445 8.7325 -11.765 8.4025 -13.125 8.0625 C-12.465 7.7325 -11.805 7.4025 -11.125 7.0625 C-10.39806096 5.08361039 -9.72683749 3.08295442 -9.125 1.0625 C-8.795 2.0525 -8.465 3.0425 -8.125 4.0625 C-7.2175 3.381875 -6.31 2.70125 -5.375 2 C-2.125 0.0625 -2.125 0.0625 0 0 Z " fill="#498232" transform="translate(106.125,381.9375)"/>
<path d="M0 0 C0.66 0 1.32 0 2 0 C2 0.66 2 1.32 2 2 C1.34 2 0.68 2 0 2 C-0.33 2.99 -0.66 3.98 -1 5 C-8.92 5.33 -16.84 5.66 -25 6 C-25.33 6.66 -25.66 7.32 -26 8 C-25.67 6.02 -25.34 4.04 -25 2 C-24.02160156 2.01160156 -23.04320312 2.02320313 -22.03515625 2.03515625 C-14.95486189 2.08388984 -8.01465352 2.08848072 -1 1 C-0.67 0.67 -0.34 0.34 0 0 Z " fill="#EFEFEF" transform="translate(375,364)"/>
<path d="M0 0 C12.87 0 25.74 0 39 0 C39 0.66 39 1.32 39 2 C38.21761963 1.99476318 37.43523926 1.98952637 36.62915039 1.98413086 C33.10694167 1.96342894 29.5847457 1.95036162 26.0625 1.9375 C24.83080078 1.92912109 23.59910156 1.92074219 22.33007812 1.91210938 C21.16025391 1.90888672 19.99042969 1.90566406 18.78515625 1.90234375 C17.70113525 1.89710693 16.61711426 1.89187012 15.50024414 1.88647461 C13.05950052 1.71573103 13.05950052 1.71573103 12 3 C9.78515625 3.203125 9.78515625 3.203125 7.0625 3.25 C6.16660156 3.27578125 5.27070313 3.3015625 4.34765625 3.328125 C3.57292969 3.21984375 2.79820312 3.1115625 2 3 C1.34 2.01 0.68 1.02 0 0 Z " fill="#C9CAC9" transform="translate(275,402)"/>
<path d="M0 0 C6.27 0 12.54 0 19 0 C19 0.66 19 1.32 19 2 C15.7 2.33 12.4 2.66 9 3 C9 3.99 9 4.98 9 6 C8.01 6.33 7.02 6.66 6 7 C6 6.01 6 5.02 6 4 C4.35 4 2.7 4 1 4 C0.67 2.68 0.34 1.36 0 0 Z " fill="#3F6F25" transform="translate(135,367)"/>
<path d="M0 0 C1.39456452 0.00667256 2.78911118 0.01863093 4.18359375 0.03515625 C4.89451172 0.03966797 5.60542969 0.04417969 6.33789062 0.04882812 C8.09899388 0.06064761 9.86005411 0.07858362 11.62109375 0.09765625 C11.95109375 1.41765625 12.28109375 2.73765625 12.62109375 4.09765625 C9.74609375 4.72265625 9.74609375 4.72265625 6.62109375 5.09765625 C5.96109375 4.43765625 5.30109375 3.77765625 4.62109375 3.09765625 C1.44829024 3.53528432 -1.43558236 4.8712713 -4.37890625 6.09765625 C-4.42162725 4.4315372 -4.41954457 2.7638274 -4.37890625 1.09765625 C-3.37890625 0.09765625 -3.37890625 0.09765625 0 0 Z " fill="#5CA63F" transform="translate(102.37890625,379.90234375)"/>
<path d="M0 0 C3 2 3 2 3.38818359 3.84765625 C3.39156738 4.57855469 3.39495117 5.30945313 3.3984375 6.0625 C3.40230469 6.85914063 3.40617187 7.65578125 3.41015625 8.4765625 C3.39855469 9.30929688 3.38695312 10.14203125 3.375 11 C3.38660156 11.83273438 3.39820313 12.66546875 3.41015625 13.5234375 C3.40628906 14.32007813 3.40242188 15.11671875 3.3984375 15.9375 C3.39505371 16.66839844 3.39166992 17.39929688 3.38818359 18.15234375 C3 20 3 20 0 22 C0 14.74 0 7.48 0 0 Z " fill="#CBCBCA" transform="translate(334,180)"/>
<path d="M0 0 C6.70518586 -0.19818283 12.65176798 -0.30844801 19 2 C19 4.31 19 6.62 19 9 C18.34 9 17.68 9 17 9 C17.33 7.02 17.66 5.04 18 3 C11.73 3 5.46 3 -1 3 C-0.67 2.01 -0.34 1.02 0 0 Z " fill="#213E18" transform="translate(126,385)"/>
<path d="M0 0 C6.6 0 13.2 0 20 0 C21 5 21 5 20 7 C19.01 6.67 18.02 6.34 17 6 C17.33 4.68 17.66 3.36 18 2 C11.73 2 5.46 2 -1 2 C-0.67 1.34 -0.34 0.68 0 0 Z " fill="#CACBCA" transform="translate(355,374)"/>
<path d="M0 0 C0.33 0.66 0.66 1.32 1 2 C-15.78812573 6.75552969 -15.78812573 6.75552969 -23 7 C-23.66 6.34 -24.32 5.68 -25 5 C-23.824375 4.896875 -22.64875 4.79375 -21.4375 4.6875 C-18.4342043 4.3260414 -15.99685571 3.70069612 -13.25 2.4375 C-10 1 -10 1 -6 1 C-3.99598989 0.69169075 -1.99488234 0.36270588 0 0 Z " fill="#4D923A" transform="translate(217,56)"/>
<path d="M0 0 C-1.45736087 0.19491452 -2.91594593 0.38069358 -4.375 0.5625 C-5.18710938 0.66691406 -5.99921875 0.77132813 -6.8359375 0.87890625 C-9 1 -9 1 -11 0 C-11 1.32 -11 2.64 -11 4 C-10.34 4.33 -9.68 4.66 -9 5 C-11.64 5 -14.28 5 -17 5 C-16.8125 2.625 -16.8125 2.625 -16 0 C-10.86586162 -3.17108547 -5.14898659 -2.83926613 0 0 Z " fill="#3E702A" transform="translate(110,392)"/>
<path d="M0 0 C0.99 0.33 1.98 0.66 3 1 C0.08745149 6.65377064 -4.19237536 11.62605603 -9.9375 14.4375 C-10.9584375 14.7159375 -10.9584375 14.7159375 -12 15 C-11.34 13.35 -10.68 11.7 -10 10 C-9.01 10 -8.02 10 -7 10 C-6.67 9.01 -6.34 8.02 -6 7 C-5.34 7 -4.68 7 -4 7 C-3.71125 6.401875 -3.4225 5.80375 -3.125 5.1875 C-2 3 -2 3 0 0 Z " fill="#4C7E29" transform="translate(329,274)"/>
<path d="M0 0 C3.35450793 3.35450793 3 8.43260973 3 13 C-0.875 10.25 -0.875 10.25 -2 8 C-2 8.66 -2 9.32 -2 10 C-2.66 10 -3.32 10 -4 10 C-3.67 7.03 -3.34 4.06 -3 1 C-2.01 0.67 -1.02 0.34 0 0 Z " fill="#B7B7B6" transform="translate(269,391)"/>
<path d="M0 0 C0 0.66 0 1.32 0 2 C-1.32 2.33 -2.64 2.66 -4 3 C-3.34 3.33 -2.68 3.66 -2 4 C-2 4.66 -2 5.32 -2 6 C-5.96 6 -9.92 6 -14 6 C-14 5.01 -14 4.02 -14 3 C-10.992472 0.99498133 -9.88768868 0.68193606 -6.4375 0.375 C-5.65246094 0.30023438 -4.86742188 0.22546875 -4.05859375 0.1484375 C-2 0 -2 0 0 0 Z " fill="#4D8B34" transform="translate(124,361)"/>
<path d="M0 0 C1.37504799 2.75009598 0.6294275 3.96944052 -0.25 6.875 C-0.50265625 7.73867187 -0.7553125 8.60234375 -1.015625 9.4921875 C-2.03465627 12.08829097 -3.13420295 13.93223522 -5 16 C-5.66 16 -6.32 16 -7 16 C-7.33 16.99 -7.66 17.98 -8 19 C-8.33 17.68 -8.66 16.36 -9 15 C-8.01 14.67 -7.02 14.34 -6 14 C-6.33 13.01 -6.66 12.02 -7 11 C-5.68 10.34 -4.36 9.68 -3 9 C-3.061875 8.071875 -3.12375 7.14375 -3.1875 6.1875 C-3 3 -3 3 -1.5 1.125 C-1.005 0.75375 -0.51 0.3825 0 0 Z " fill="#4F8C35" transform="translate(351,241)"/>
<path d="M0 0 C0 0.99 0 1.98 0 3 C-2.37507855 3.02719556 -4.74983964 3.04693247 -7.125 3.0625 C-8.12273437 3.07506836 -8.12273437 3.07506836 -9.140625 3.08789062 C-13.20681354 3.10782292 -17.0120092 2.78890161 -21 2 C-21 1.67 -21 1.34 -21 1 C-13.98441385 0.4011085 -7.04321257 -0.13810221 0 0 Z " fill="#5A973C" transform="translate(253,55)"/>
<path d="M0 0 C1.66691418 3.33382836 0.09279813 6.61861941 -1 10 C-2.23857391 13.04698602 -3.58445181 16.03147175 -5 19 C-6.12133403 15.63599792 -5.90131013 14.35942868 -5 11 C-4.505 10.0409375 -4.505 10.0409375 -4 9.0625 C-2.82459687 6.89353668 -2.82459687 6.89353668 -2.5 3.8125 C-2.335 2.884375 -2.17 1.95625 -2 1 C-1.34 0.67 -0.68 0.34 0 0 Z " fill="#B7B7B7" transform="translate(277,371)"/>
<path d="M0 0 C0.33 0.66 0.66 1.32 1 2 C1.99 2.33 2.98 2.66 4 3 C3.67 3.66 3.34 4.32 3 5 C3.99 5 4.98 5 6 5 C6 4.34 6 3.68 6 3 C8.97 3.33 11.94 3.66 15 4 C15 4.33 15 4.66 15 5 C10.38 5.33 5.76 5.66 1 6 C1 7.32 1 8.64 1 10 C0.01 9.67 -0.98 9.34 -2 9 C-1.505 7.6078125 -1.505 7.6078125 -1 6.1875 C0.14967004 3.07970709 0.14967004 3.07970709 0 0 Z " fill="#3A6923" transform="translate(105,366)"/>
<path d="M0 0 C1.0725 0.165 2.145 0.33 3.25 0.5 C7.03028752 1.08810915 7.03028752 1.08810915 11 1 C13.140625 1.875 13.140625 1.875 15.25 3 C15.95640625 3.37125 16.6628125 3.7425 17.390625 4.125 C17.92171875 4.41375 18.4528125 4.7025 19 5 C14.90913548 6.67641098 11.28488982 5.2409319 7.25 4.0625 C6.20392578 3.76956055 6.20392578 3.76956055 5.13671875 3.47070312 C3.42201027 2.9891754 1.71065123 2.49574843 0 2 C0 1.34 0 0.68 0 0 Z " fill="#519029" transform="translate(256,56)"/>
<path d="M0 0 C0 3.29657856 -0.74333269 5.16364428 -2 8.1875 C-2.37125 9.08855469 -2.7425 9.98960937 -3.125 10.91796875 C-3.41375 11.60503906 -3.7025 12.29210937 -4 13 C-4.66 13 -5.32 13 -6 13 C-6 13.99 -6 14.98 -6 16 C-6.66 16 -7.32 16 -8 16 C-6.95902388 12.13351728 -5.96301592 8.50538557 -4 5 C-3.34 5 -2.68 5 -2 5 C-2 3.68 -2 2.36 -2 1 C-1.34 0.67 -0.68 0.34 0 0 Z " fill="#CACBCA" transform="translate(152,142)"/>
<path d="M0 0 C0 0.99 0 1.98 0 3 C1.32 3.66 2.64 4.32 4 5 C-0.455 5.495 -0.455 5.495 -5 6 C-5.33 4.68 -5.66 3.36 -6 2 C-3 0 -3 0 0 0 Z " fill="#4B882F" transform="translate(109,352)"/>
<path d="M0 0 C0.33 0.66 0.66 1.32 1 2 C1.99 2 2.98 2 4 2 C3.52797514 6.24822374 1.03344482 8.19989709 -2 11 C-1.125 3.375 -1.125 3.375 0 0 Z " fill="#E6EEE3" transform="translate(235,210)"/>
<path d="M0 0 C0.33 1.32 0.66 2.64 1 4 C-4.94 4.495 -4.94 4.495 -11 5 C-11 5.66 -11 6.32 -11 7 C-12.32 6.67 -13.64 6.34 -15 6 C-10.25632481 2.96404788 -7.73157292 1.73341521 -2 2 C-1.34 1.34 -0.68 0.68 0 0 Z " fill="#BCBCBB" transform="translate(215,96)"/>
<path d="M0 0 C6.27 0.33 12.54 0.66 19 1 C19 1.33 19 1.66 19 2 C16.20837429 2.16737799 13.41670379 2.33393402 10.625 2.5 C9.8309375 2.54769531 9.036875 2.59539062 8.21875 2.64453125 C2.2265625 3 2.2265625 3 0 3 C0 2.01 0 1.02 0 0 Z " fill="#E2E2E1" transform="translate(221,95)"/>
<path d="M0 0 C2.64 0 5.28 0 8 0 C7.67 1.32 7.34 2.64 7 4 C6.34 3.34 5.68 2.68 5 2 C3.02 2.99 3.02 2.99 1 4 C1 4.99 1 5.98 1 7 C0.01 7.33 -0.98 7.66 -2 8 C-1.125 2.25 -1.125 2.25 0 0 Z " fill="#DBDBDB" transform="translate(205,367)"/>
<path d="M0 0 C2.64 0.33 5.28 0.66 8 1 C8 1.66 8 2.32 8 3 C8.99 3 9.98 3 11 3 C11 3.66 11 4.32 11 5 C9.741875 4.87625 8.48375 4.7525 7.1875 4.625 C6.12595703 4.52058594 6.12595703 4.52058594 5.04296875 4.4140625 C3 4 3 4 0 2 C0 1.34 0 0.68 0 0 Z " fill="#57A237" transform="translate(270,74)"/>
<path d="M0 0 C2.97 0.99 5.94 1.98 9 3 C8.67 3.66 8.34 4.32 8 5 C5.71484375 5.4140625 5.71484375 5.4140625 2.9375 5.625 C2.01839844 5.69976562 1.09929687 5.77453125 0.15234375 5.8515625 C-0.91306641 5.92503906 -0.91306641 5.92503906 -2 6 C-1.34 5.34 -0.68 4.68 0 4 C0 2.68 0 1.36 0 0 Z " fill="#539837" transform="translate(99,392)"/>
<path d="M0 0 C0.66 0.33 1.32 0.66 2 1 C1.40075776 5.19469571 0.42500059 9.00999834 -1 13 C-2.53690745 10.58959839 -3.09752136 9.49917715 -2.5390625 6.640625 C-2.23742187 5.85171875 -1.93578125 5.0628125 -1.625 4.25 C-1.32851563 3.45078125 -1.03203125 2.6515625 -0.7265625 1.828125 C-0.48679687 1.22484375 -0.24703125 0.6215625 0 0 Z " fill="#D7D7D7" transform="translate(304,365)"/>
<path d="M0 0 C2 3 2 3 1.86328125 5.0078125 C1.68152344 5.70648438 1.49976563 6.40515625 1.3125 7.125 C1.14363281 7.82882812 0.97476562 8.53265625 0.80078125 9.2578125 C0.53652344 9.83273437 0.27226562 10.40765625 0 11 C-0.99 11.33 -1.98 11.66 -3 12 C-2.40075776 7.80530429 -1.42500059 3.99000166 0 0 Z " fill="#D8D9D8" transform="translate(301,357)"/>
<path d="M0 0 C0.99 0.33 1.98 0.66 3 1 C2.34 1 1.68 1 1 1 C0.773125 1.53625 0.54625 2.0725 0.3125 2.625 C-1.43382056 5.78500863 -3.6402849 8.2676983 -6 11 C-6.33 10.01 -6.66 9.02 -7 8 C-5.56640625 5.95703125 -5.56640625 5.95703125 -3.5625 3.8125 C-2.90378906 3.09707031 -2.24507812 2.38164063 -1.56640625 1.64453125 C-1.04949219 1.10183594 -0.53257812 0.55914062 0 0 Z " fill="#CECECC" transform="translate(165,123)"/>
<path d="M0 0 C0.33 0.99 0.66 1.98 1 3 C2.32 3 3.64 3 5 3 C5 3.99 5 4.98 5 6 C2.525 5.01 2.525 5.01 0 4 C0 5.32 0 6.64 0 8 C-1.32 7.67 -2.64 7.34 -4 7 C-3.34 6.67 -2.68 6.34 -2 6 C-1.27306096 4.02111039 -0.60183749 2.02045442 0 0 Z " fill="#2C4F1B" transform="translate(97,383)"/>
<path d="M0 0 C2.37339853 1.85744232 2.9940468 2.97847688 3.8125 5.9375 C4.00613718 9.10024068 3.70401547 10.39385869 2 13 C-0.28571429 4.57142857 -0.28571429 4.57142857 0 0 Z " fill="#C9C9C8" transform="translate(330,162)"/>
<path d="M0 0 C0.33 0.66 0.66 1.32 1 2 C-4.5415502 3.96263236 -8.20858017 4.01603857 -14 3 C-10.91190305 1.23537317 -9.76687864 1 -6 1 C-3.99598989 0.69169075 -1.99488234 0.36270588 0 0 Z " fill="#45872C" transform="translate(217,56)"/>
<path d="M0 0 C1.1875 1.5625 1.1875 1.5625 2 4 C-0.24489796 10.62244898 -0.24489796 10.62244898 -3 12 C-2.40075776 7.80530429 -1.42500059 3.99000166 0 0 Z " fill="#DBDBDA" transform="translate(317,389)"/>
<path d="M0 0 C0.66 0.33 1.32 0.66 2 1 C1.125 8.75 1.125 8.75 0 11 C-0.66 11 -1.32 11 -2 11 C-1.85892253 9.54119891 -1.71197585 8.08296449 -1.5625 6.625 C-1.48128906 5.81289063 -1.40007812 5.00078125 -1.31640625 4.1640625 C-1 2 -1 2 0 0 Z " fill="#BBBCBB" transform="translate(182,372)"/>
<path d="M0 0 C0.99 0 1.98 0 3 0 C2.69078116 1.45903258 2.37751201 2.91720722 2.0625 4.375 C1.88847656 5.18710937 1.71445313 5.99921875 1.53515625 6.8359375 C1 9 1 9 0 11 C-0.99 10.67 -1.98 10.34 -3 10 C-2.34 9.01 -1.68 8.02 -1 7 C-0.60612212 4.67612053 -0.26513915 2.34206251 0 0 Z " fill="#C3C4C3" transform="translate(233,372)"/>
<path d="M0 0 C0.66 0.33 1.32 0.66 2 1 C1.125 8.75 1.125 8.75 0 11 C-0.66 11 -1.32 11 -2 11 C-1.85892253 9.54119891 -1.71197585 8.08296449 -1.5625 6.625 C-1.48128906 5.81289063 -1.40007812 5.00078125 -1.31640625 4.1640625 C-1 2 -1 2 0 0 Z " fill="#BABBBA" transform="translate(186,360)"/>
<path d="M0 0 C1.21236328 0.01353516 1.21236328 0.01353516 2.44921875 0.02734375 C3.37154297 0.04474609 3.37154297 0.04474609 4.3125 0.0625 C4.3125 0.3925 4.3125 0.7225 4.3125 1.0625 C-0.1425 1.5575 -0.1425 1.5575 -4.6875 2.0625 C-5.3475 3.7125 -6.0075 5.3625 -6.6875 7.0625 C-7.0175 7.0625 -7.3475 7.0625 -7.6875 7.0625 C-7.6875 5.0825 -7.6875 3.1025 -7.6875 1.0625 C-4.80538698 0.10179566 -2.98899956 -0.04331883 0 0 Z " fill="#BBBBBB" transform="translate(195.6875,353.9375)"/>
<path d="M0 0 C2 1 4 2 6 3 C6 3.66 6 4.32 6 5 C6.639375 5.2475 7.27875 5.495 7.9375 5.75 C10 7 10 7 10.62890625 9.078125 C10.81259766 10.02945312 10.81259766 10.02945312 11 11 C6.86378916 7.6189962 3.18683431 4.33409466 0 0 Z " fill="#AAAAA9" transform="translate(160,258)"/>
<path d="M0 0 C3.2645028 3.2645028 3.93236055 7.41047299 4.125 11.9375 C4.08375 12.618125 4.0425 13.29875 4 14 C2.02189769 12.62392883 1.1093113 11.485828 0.578125 9.125 C0.19478133 6.0582506 0 3.09301187 0 0 Z " fill="#CACAC9" transform="translate(140,213)"/>
<path d="M0 0 C4.47542216 2.55738409 5.98123631 6.4792579 8 11 C7.01 11.495 7.01 11.495 6 12 C6 11.01 6 10.02 6 9 C5.01 8.67 4.02 8.34 3 8 C3 7.01 3 6.02 3 5 C2.34 5 1.68 5 1 5 C0.67 3.35 0.34 1.7 0 0 Z " fill="#C2C3C2" transform="translate(317,135)"/>
<path d="M0 0 C6.875 2.75 6.875 2.75 8 5 C6.35 5 4.7 5 3 5 C3 5.66 3 6.32 3 7 C2.34 7 1.68 7 1 7 C0.67 4.69 0.34 2.38 0 0 Z " fill="#58963C" transform="translate(297,69)"/>
<path d="M0 0 C6.625 -0.125 6.625 -0.125 10 1 C10 1.66 10 2.32 10 3 C7.36 3 4.72 3 2 3 C2 2.34 2 1.68 2 1 C1.34 0.67 0.68 0.34 0 0 Z " fill="#5A9237" transform="translate(256,72)"/>
<path d="M0 0 C0.33 0 0.66 0 1 0 C1.36923077 5.53846154 1.36923077 5.53846154 -0.5 7.875 C-1.2425 8.431875 -1.2425 8.431875 -2 9 C-2.6875 7.3125 -2.6875 7.3125 -3 5 C-1.625 2.25 -1.625 2.25 0 0 Z " fill="#C4C4C3" transform="translate(280,361)"/>
<path d="M0 0 C0.33 0.66 0.66 1.32 1 2 C-4.14285714 7.57142857 -4.14285714 7.57142857 -8 8 C-6.49776416 3.79373966 -3.71449966 2.26099979 0 0 Z " fill="#40892C" transform="translate(310,292)"/>
<path d="M0 0 C-1.90598443 2.43542455 -3.00596275 3.00158196 -6.0625 3.8125 C-7.5165625 3.9053125 -7.5165625 3.9053125 -9 4 C-9.66 3.34 -10.32 2.68 -11 2 C-3.57142857 -1.57142857 -3.57142857 -1.57142857 0 0 Z " fill="#CACAC9" transform="translate(274,286)"/>
<path d="M0 0 C0 0.99 0 1.98 0 3 C-2.63259597 5.41914224 -4.59428799 6.86476266 -8 8 C-8 7.01 -8 6.02 -8 5 C-5.6875 3.4375 -5.6875 3.4375 -3 2 C-2.01 1.34 -1.02 0.68 0 0 Z " fill="#E0E0DF" transform="translate(297,271)"/>
<path d="M0 0 C0.99 0.33 1.98 0.66 3 1 C-0.75 7.875 -0.75 7.875 -3 9 C-2.44271087 5.65626525 -1.64826111 2.96687001 0 0 Z " fill="#C9C9C9" transform="translate(243,234)"/>
<path d="M0 0 C0.99 0 1.98 0 3 0 C3 2.64 3 5.28 3 8 C2.01 7.67 1.02 7.34 0 7 C0 4.69 0 2.38 0 0 Z " fill="#B8B8B7" transform="translate(137,202)"/>
<path d="M0 0 C0.99 0 1.98 0 3 0 C2.67 2.31 2.34 4.62 2 7 C1.01 7.33 0.02 7.66 -1 8 C-0.67 5.36 -0.34 2.72 0 0 Z " fill="#D7D8D2" transform="translate(232,361)"/>
<path d="M0 0 C1.27351308 2.54702616 0.80191925 3.4282945 0.0625 6.125 C-0.13214844 6.84945313 -0.32679688 7.57390625 -0.52734375 8.3203125 C-0.68332031 8.87460937 -0.83929688 9.42890625 -1 10 C-3 7 -3 7 -2.75 3.875 C-2.37875 2.451875 -2.37875 2.451875 -2 1 C-1.34 0.67 -0.68 0.34 0 0 Z " fill="#CCCCCB" transform="translate(277,371)"/>
<path d="M0 0 C3.4375 1.1875 3.4375 1.1875 4.4375 3.1875 C1.1375 2.8575 -2.1625 2.5275 -5.5625 2.1875 C-5.5625 1.5275 -5.5625 0.8675 -5.5625 0.1875 C-3.5625 -0.8125 -3.5625 -0.8125 0 0 Z " fill="#417432" transform="translate(110.5625,376.8125)"/>
<path d="M0 0 C0.99 0.33 1.98 0.66 3 1 C4.0625 3.3125 4.0625 3.3125 5 6 C5.65213539 7.34050052 6.31379969 8.67661368 7 10 C5.0625 9.375 5.0625 9.375 3 8 C2.25 4.875 2.25 4.875 2 2 C1.34 2 0.68 2 0 2 C0 1.34 0 0.68 0 0 Z " fill="#5D7E28" transform="translate(121,240)"/>
<path d="M0 0 C1.125 1.625 1.125 1.625 2 4 C1.16933916 7.46108684 0.52986895 9.47013105 -2 12 C-1.44687265 7.97007218 -0.8441938 3.97977076 0 0 Z " fill="#D8D8D7" transform="translate(332,214)"/>
<path d="M0 0 C0.66 0.33 1.32 0.66 2 1 C2.4140625 3.06640625 2.4140625 3.06640625 2.625 5.5625 C2.69976562 6.38878906 2.77453125 7.21507812 2.8515625 8.06640625 C2.92503906 9.02353516 2.92503906 9.02353516 3 10 C0.86746245 7.40386733 -0.55075623 5.36932827 -1 2 C-0.67 1.34 -0.34 0.68 0 0 Z " fill="#559338" transform="translate(352,148)"/>
<path d="M0 0 C2.125 0.375 2.125 0.375 4 1 C3.34 1 2.68 1 2 1 C1.71125 1.804375 1.4225 2.60875 1.125 3.4375 C0 6 0 6 -2 7 C-2.125 4.625 -2.125 4.625 -2 2 C-1.34 1.34 -0.68 0.68 0 0 Z " fill="#498F35" transform="translate(129,105)"/>
<path d="M0 0 C-0.75 1.9375 -0.75 1.9375 -2 4 C-4.95319818 5.23843794 -5.87438528 5.04187157 -9 4 C-3.375 0 -3.375 0 0 0 Z " fill="#598434" transform="translate(156,82)"/>
<path d="M0 0 C1.134375 0.020625 2.26875 0.04125 3.4375 0.0625 C2.4475 0.7225 1.4575 1.3825 0.4375 2.0625 C-1.23673683 3.38631517 -2.90461215 4.71826661 -4.5625 6.0625 C-4.605221 4.39638095 -4.60313832 2.72867115 -4.5625 1.0625 C-3.5625 0.0625 -3.5625 0.0625 0 0 Z " fill="#437732" transform="translate(102.5625,379.9375)"/>
<path d="M0 0 C1.125 1.6875 1.125 1.6875 2 4 C1.125 6.75 1.125 6.75 0 9 C-0.66 9 -1.32 9 -2 9 C-1.51421457 5.87709365 -1.0013988 3.00419641 0 0 Z " fill="#DADADA" transform="translate(230,370)"/>
<path d="M0 0 C0.66 0 1.32 0 2 0 C1.67 2.97 1.34 5.94 1 9 C-0.32 8.67 -1.64 8.34 -3 8 C-2.34 7.67 -1.68 7.34 -1 7 C-0.59270772 4.67843403 -0.25561323 2.3431213 0 0 Z " fill="#53862B" transform="translate(357,219)"/>
<path d="M0 0 C0.33 0.99 0.66 1.98 1 3 C-1.21934164 6.32901247 -2.34683329 6.75023244 -6 8 C-4.02 5.36 -2.04 2.72 0 0 Z " fill="#E1EADC" transform="translate(240,167)"/>
<path d="M0 0 C0.66 0.66 1.32 1.32 2 2 C1.625 5.125 1.625 5.125 1 8 C0.01 8 -0.98 8 -2 8 C-1.125 2.25 -1.125 2.25 0 0 Z " fill="#52903C" transform="translate(118,156)"/>
<path d="M0 0 C0.66 0.33 1.32 0.66 2 1 C2 1.66 2 2.32 2 3 C-1.465 4.485 -1.465 4.485 -5 6 C-5 5.01 -5 4.02 -5 3 C-2.625 1.25 -2.625 1.25 0 0 Z " fill="#D1D1D0" transform="translate(189,105)"/>
<path d="M0 0 C0 0.99 0 1.98 0 3 C-2.88834003 5.10770759 -4.38462395 6 -8 6 C-6.72553565 3.4510713 -5.53636507 3.19358356 -3 2 C-2.01 1.34 -1.02 0.68 0 0 Z " fill="#48842F" transform="translate(174,69)"/>
<path d="M0 0 C0.66 0.33 1.32 0.66 2 1 C1.34 3.97 0.68 6.94 0 10 C-0.99 9.67 -1.98 9.34 -3 9 C-2.34 9 -1.68 9 -1 9 C-1.020625 7.88625 -1.04125 6.7725 -1.0625 5.625 C-1 2 -1 2 0 0 Z " fill="#BDBEBD" transform="translate(237,361)"/>
<path d="M0 0 C2.97 0.33 5.94 0.66 9 1 C7 3 7 3 3.875 3.125 C2.451875 3.063125 2.451875 3.063125 1 3 C0.67 2.01 0.34 1.02 0 0 Z " fill="#CECECE" transform="translate(214,290)"/>
<path d="M0 0 C0.66 0.33 1.32 0.66 2 1 C1.01 1.33 0.02 1.66 -1 2 C-1.33 3.65 -1.66 5.3 -2 7 C-2.99 7 -3.98 7 -5 7 C-2.25 1.125 -2.25 1.125 0 0 Z " fill="#538B3F" transform="translate(236,240)"/>
<path d="M0 0 C0.99 0.66 1.98 1.32 3 2 C-1.625 6 -1.625 6 -5 6 C-5 5.34 -5 4.68 -5 4 C-3.37373596 2.61767557 -1.7074998 1.28062485 0 0 Z " fill="#B4B4B3" transform="translate(174,115)"/>
<path d="M0 0 C1.98 0 3.96 0 6 0 C6 0.66 6 1.32 6 2 C5.01 2 4.02 2 3 2 C2.67 2.99 2.34 3.98 2 5 C1.34 5 0.68 5 0 5 C0 3.35 0 1.7 0 0 Z " fill="#4E8E39" transform="translate(90,396)"/>
<path d="M0 0 C0.66 0 1.32 0 2 0 C2.125 5.75 2.125 5.75 1 8 C0.34 8 -0.32 8 -1 8 C-0.67 5.36 -0.34 2.72 0 0 Z " fill="#CBCBCA" transform="translate(252,377)"/>
<path d="M0 0 C2.31 0.33 4.62 0.66 7 1 C6.67 1.66 6.34 2.32 6 3 C3.67843403 3.40729228 1.3431213 3.74438677 -1 4 C-0.67 2.68 -0.34 1.36 0 0 Z " fill="#4D9138" transform="translate(102,374)"/>
<path d="M0 0 C0.66 0 1.32 0 2 0 C2 0.66 2 1.32 2 2 C1.34 2 0.68 2 0 2 C-0.33 2.99 -0.66 3.98 -1 5 C-3.64 4.67 -6.28 4.34 -9 4 C-9 3.67 -9 3.34 -9 3 C-7.88625 2.87625 -6.7725 2.7525 -5.625 2.625 C-1.96896323 2.3534187 -1.96896323 2.3534187 0 0 Z " fill="#DBDBDA" transform="translate(375,364)"/>
<path d="M0 0 C0.66 0.33 1.32 0.66 2 1 C1.67 3.31 1.34 5.62 1 8 C0.01 7.34 -0.98 6.68 -2 6 C-1.49396008 3.83125748 -1.00016187 2.00032373 0 0 Z " fill="#3A5E20" transform="translate(284,309)"/>
<path d="M0 0 C0.33 0 0.66 0 1 0 C1 2.64 1 5.28 1 8 C-0.32 7.67 -1.64 7.34 -3 7 C-2.01 4.69 -1.02 2.38 0 0 Z " fill="#B9B9B9" transform="translate(140,173)"/>
<path d="M0 0 C0.66 0.99 1.32 1.98 2 3 C0.35 4.65 -1.3 6.3 -3 8 C-3.66 7.67 -4.32 7.34 -5 7 C-3.35 4.69 -1.7 2.38 0 0 Z " fill="#7BB961" transform="translate(236,149)"/>
<path d="M0 0 C3 1.8125 3 1.8125 6 4 C6 4.99 6 5.98 6 7 C5.34 7 4.68 7 4 7 C0 2.52941176 0 2.52941176 0 0 Z " fill="#DCDCDB" transform="translate(308,125)"/>
<path d="M0 0 C0 0.99 0 1.98 0 3 C-5.75 2.25 -5.75 2.25 -8 0 C-4.94736336 -0.98120464 -3.05263664 -0.98120464 0 0 Z " fill="#D7D7D7" transform="translate(269,99)"/>
<path d="M0 0 C4.29 0 8.58 0 13 0 C13 0.33 13 0.66 13 1 C8.71 1 4.42 1 0 1 C0 0.67 0 0.34 0 0 Z " fill="#304100" transform="translate(231,54)"/>
<path d="M0 0 C0.33 0 0.66 0 1 0 C1 3.96 1 7.92 1 12 C0.67 12 0.34 12 0 12 C0 8.04 0 4.08 0 0 Z " fill="#96FF32" transform="translate(359,189)"/>
<path d="M0 0 C0.33 0 0.66 0 1 0 C1 2.64 1 5.28 1 8 C0.67 8 0.34 8 0 8 C0 5.36 0 2.72 0 0 Z " fill="#607044" transform="translate(114,200)"/>
<path d="M0 0 C0.33 0 0.66 0 1 0 C1 2.64 1 5.28 1 8 C0.67 8 0.34 8 0 8 C0 5.36 0 2.72 0 0 Z " fill="#48893A" transform="translate(114,183)"/>
<path d="M0 0 C1.65 0 3.3 0 5 0 C5 0.33 5 0.66 5 1 C3.35 1 1.7 1 0 1 C0 0.67 0 0.34 0 0 Z " fill="#93C748" transform="translate(111,351)"/>
<path d="" fill="#D4D4D4" transform="translate(0,0)"/>
<path d="" fill="#489B30" transform="translate(0,0)"/>
<path d="" fill="#739D2A" transform="translate(0,0)"/>
<path d="M0 0 C2 1 2 1 2 1 Z " fill="#007F00" transform="translate(92,401)"/>
<path d="" fill="#FFFFFF" transform="translate(0,0)"/>
<path d="" fill="#FFFFFF" transform="translate(0,0)"/>
<path d="" fill="#DEDEDE" transform="translate(0,0)"/>
<path d="M0 0 C2 1 2 1 2 1 Z " fill="#FFFFFF" transform="translate(370,369)"/>
<path d="M0 0 C2 1 2 1 2 1 Z " fill="#FFFFFF" transform="translate(262,290)"/>
<path d="" fill="#FFFFFF" transform="translate(0,0)"/>
<path d="" fill="#FFFFFF" transform="translate(0,0)"/>
<path d="" fill="#FFFFFF" transform="translate(0,0)"/>
<path d="" fill="#585858" transform="translate(0,0)"/>
<path d="M0 0 C2 1 2 1 2 1 Z " fill="#FFFFFF" transform="translate(260,97)"/>
<path d="M0 0 C2 1 2 1 2 1 Z " fill="#FFFFFF" transform="translate(211,97)"/>
<path d="" fill="#FFFFFF" transform="translate(0,0)"/>
<path d="" fill="#808080" transform="translate(0,0)"/>
<path d="" fill="#FFFFFF" transform="translate(0,0)"/>
<path d="" fill="#FFFFFF" transform="translate(0,0)"/>
<path d="" fill="#41FF00" transform="translate(0,0)"/>
<path d="" fill="#FFFFFF" transform="translate(0,0)"/>
<path d="" fill="#FFFFFF" transform="translate(0,0)"/>
<path d="" fill="#FFFFFF" transform="translate(0,0)"/>
<path d="" fill="#FFFFFF" transform="translate(0,0)"/>
<path d="" fill="#FFFFFF" transform="translate(0,0)"/>
<path d="" fill="#55AA55" transform="translate(0,0)"/>
<path d="" fill="#FFFFFF" transform="translate(0,0)"/>
<path d="" fill="#00FF00" transform="translate(0,0)"/>
<path d="" fill="#80FF80" transform="translate(0,0)"/>
<path d="" fill="#4FEC4F" transform="translate(0,0)"/>
<path d="" fill="#00FF00" transform="translate(0,0)"/>
<path d="" fill="#5DFF00" transform="translate(0,0)"/>
<path d="" fill="#00FF00" transform="translate(0,0)"/>
<path d="" fill="#000000" transform="translate(0,0)"/>
<path d="" fill="#00FF00" transform="translate(0,0)"/>
<path d="" fill="#FFFFFF" transform="translate(0,0)"/>
<path d="" fill="#7E7E00" transform="translate(0,0)"/>
<path d="" fill="#FFFFFF" transform="translate(0,0)"/>
<path d="" fill="#00FF00" transform="translate(0,0)"/>
<path d="" fill="#D7FF00" transform="translate(0,0)"/>
<path d="" fill="#00FF00" transform="translate(0,0)"/>
<path d="" fill="#F7F7F7" transform="translate(0,0)"/>
<path d="" fill="#808000" transform="translate(0,0)"/>
<path d="" fill="#60FF60" transform="translate(0,0)"/>
<path d="" fill="#FFFFFF" transform="translate(0,0)"/>
<path d="" fill="#FFFFFF" transform="translate(0,0)"/>
<path d="" fill="#00FF00" transform="translate(0,0)"/>
<path d="" fill="#00FF00" transform="translate(0,0)"/>
<path d="" fill="#24FF00" transform="translate(0,0)"/>
<path d="" fill="#005D00" transform="translate(0,0)"/>
<path d="" fill="#AAAAAA" transform="translate(0,0)"/>
<path d="" fill="#FFFFFF" transform="translate(0,0)"/>
<path d="" fill="#55AA55" transform="translate(0,0)"/>
<path d="" fill="#808080" transform="translate(0,0)"/>
<path d="" fill="#80FF80" transform="translate(0,0)"/>
<path d="" fill="#000000" transform="translate(0,0)"/>
<path d="" fill="#00FF00" transform="translate(0,0)"/>
<path d="" fill="#4CFF00" transform="translate(0,0)"/>
<path d="" fill="#D9D9D9" transform="translate(0,0)"/>
<path d="" fill="#7F807F" transform="translate(0,0)"/>
<path d="" fill="#FFFFFF" transform="translate(0,0)"/>
<path d="" fill="#00FF00" transform="translate(0,0)"/>
<path d="" fill="#80FF80" transform="translate(0,0)"/>
<path d="" fill="#00FF00" transform="translate(0,0)"/>
<path d="" fill="#79F379" transform="translate(0,0)"/>
</svg>
